<?xml version="1.0" encoding="UTF-8"?>
<svg xmlns="http://www.w3.org/2000/svg" version="1.1" xmlns:xlink="http://www.w3.org/1999/xlink" width="3189px" height="2750px" viewBox="88 140 3189 2750" style="shape-rendering:geometricPrecision; text-rendering:geometricPrecision; image-rendering:optimizeQuality; fill-rule:evenodd; clip-rule:evenodd">
<g xmlns="http://www.w3.org/2000/svg"><path style="opacity:1" fill="#7774FF" d="M 2376.5,706.5 C 2364,712.674 2352,719.674 2340.5,727.5C 2313.13,745.528 2286.79,765.028 2261.5,786C 2208.19,832.16 2154.19,877.327 2099.5,921.5C 2094.21,924.788 2089.21,928.454 2084.5,932.5C 2037.96,967.127 1987.96,996.294 1934.5,1020C 1844.54,1055.95 1751.87,1064.29 1656.5,1045C 1601.39,1031.45 1550.06,1009.11 1502.5,978C 1458.02,948.687 1415.68,916.521 1375.5,881.5C 1370.81,877.81 1366.15,874.143 1361.5,870.5C 1344.82,855.82 1327.82,841.487 1310.5,827.5C 1340.32,806.523 1366.48,781.523 1389,752.5C 1399.33,738.833 1409.67,725.167 1420,711.5C 1445.68,817.006 1507.84,892.506 1606.5,938C 1690.97,973.23 1778.31,982.23 1868.5,965C 1924,953.98 1976.17,934.48 2025,906.5C 2026.93,897.646 2027.93,888.646 2028,879.5C 2030.84,832.68 2027.51,786.347 2018,740.5C 2017.22,738.714 2016.05,737.214 2014.5,736C 2010.74,735.262 2007.07,735.595 2003.5,737C 1952.63,760.403 1899.96,779.07 1845.5,793C 1879.67,773.08 1914,753.414 1948.5,734C 2003.72,704.653 2062.55,689.82 2125,689.5C 2126.34,642.504 2117.67,597.504 2099,554.5C 2094.51,545.685 2088.67,537.852 2081.5,531C 2024.86,529.872 1971.53,542.206 1921.5,568C 1882.17,591.333 1842.83,614.667 1803.5,638C 1779.55,651.862 1754.55,663.195 1728.5,672C 1651.49,684.743 1594.99,656.576 1559,587.5C 1545.67,560.314 1535.84,531.814 1529.5,502C 1535.54,486.099 1540.54,469.933 1544.5,453.5C 1577.63,480.582 1613.63,503.415 1652.5,522C 1716.76,548.376 1781.93,550.542 1848,528.5C 1883.38,516.392 1916.55,499.892 1947.5,479C 1965.78,466.387 1983.78,453.387 2001.5,440C 2041.72,407.715 2081.39,374.715 2120.5,341C 2164.2,304.644 2210.54,271.978 2259.5,243C 2300.98,219.385 2344.64,201.052 2390.5,188C 2442.84,173.251 2495.84,170.585 2549.5,180C 2601.09,190.088 2650.76,205.755 2698.5,227C 2772.44,260.943 2841.11,302.943 2904.5,353C 2836.71,487.083 2769.87,621.583 2704,756.5C 2692.47,746.315 2679.97,737.481 2666.5,730C 2621.68,703.947 2573.68,686.614 2522.5,678C 2475.75,670.634 2431.42,677.634 2389.5,699C 2384.78,701.022 2380.44,703.522 2376.5,706.5 Z" /></g>
<g xmlns="http://www.w3.org/2000/svg"><path style="opacity:1" fill="#7774FF" d="M 1366.5,299.5 C 1365.11,301.589 1364.44,303.922 1364.5,306.5C 1366.09,325.94 1365.26,345.273 1362,364.5C 1338.96,477.569 1289.96,577.903 1215,665.5C 1198.17,683.711 1179.84,700.044 1160,714.5C 1159.61,717.104 1158.78,719.438 1157.5,721.5C 1136.71,710.736 1115.04,702.236 1092.5,696C 1060.81,690.37 1029.14,690.704 997.5,697C 934.741,709.805 875.575,731.972 820,763.5C 805.191,731.215 789.357,699.548 772.5,668.5C 770.73,663.167 768.397,658.167 765.5,653.5C 756.737,634.974 747.737,616.641 738.5,598.5C 736.167,593.833 733.833,589.167 731.5,584.5C 693.116,506.065 654.45,427.732 615.5,349.5C 675.034,311.222 736.367,275.722 799.5,243C 854.536,216.656 912.203,198.322 972.5,188C 1033.94,180.127 1095.27,180.793 1156.5,190C 1204.84,200.666 1249.84,219.333 1291.5,246C 1317.23,262.861 1342.23,280.694 1366.5,299.5 Z" /></g>
<g xmlns="http://www.w3.org/2000/svg"><path style="opacity:1" fill="#151515" d="M 1544.5,453.5 C 1540.54,469.933 1535.54,486.099 1529.5,502C 1535.84,531.814 1545.67,560.314 1559,587.5C 1594.99,656.576 1651.49,684.743 1728.5,672C 1754.55,663.195 1779.55,651.862 1803.5,638C 1842.83,614.667 1882.17,591.333 1921.5,568C 1971.53,542.206 2024.86,529.872 2081.5,531C 2088.67,537.852 2094.51,545.685 2099,554.5C 2117.67,597.504 2126.34,642.504 2125,689.5C 2062.55,689.82 2003.72,704.653 1948.5,734C 1914,753.414 1879.67,773.08 1845.5,793C 1899.96,779.07 1952.63,760.403 2003.5,737C 2007.07,735.595 2010.74,735.262 2014.5,736C 2016.05,737.214 2017.22,738.714 2018,740.5C 2027.51,786.347 2030.84,832.68 2028,879.5C 2027.93,888.646 2026.93,897.646 2025,906.5C 1976.17,934.48 1924,953.98 1868.5,965C 1778.31,982.23 1690.97,973.23 1606.5,938C 1507.84,892.506 1445.68,817.006 1420,711.5C 1409.67,725.167 1399.33,738.833 1389,752.5C 1366.48,781.523 1340.32,806.523 1310.5,827.5C 1294.39,837.871 1276.72,843.871 1257.5,845.5C 1234.41,842.782 1213.25,835.116 1194,822.5C 1172.93,890.646 1175.26,957.979 1201,1024.5C 1211.04,1050.58 1223.7,1075.24 1239,1098.5C 1240.29,1102.67 1239.12,1105.84 1235.5,1108C 1198.37,1110.6 1164.04,1121.6 1132.5,1141C 1129.67,1143.83 1126.83,1146.67 1124,1149.5C 1122.99,1151.02 1122.49,1152.69 1122.5,1154.5C 1147.43,1157.81 1172.43,1158.31 1197.5,1156C 1204.02,1143.81 1213.02,1133.81 1224.5,1126C 1239.6,1119.15 1252.1,1122.32 1262,1135.5C 1266.27,1146.48 1263.1,1154.64 1252.5,1160C 1238.3,1165.47 1223.64,1168.97 1208.5,1170.5C 1201.12,1182.48 1197.28,1195.48 1197,1209.5C 1198.83,1211.07 1200.99,1211.91 1203.5,1212C 1224.14,1212.48 1244.47,1210.15 1264.5,1205C 1280.83,1201.28 1296.83,1196.45 1312.5,1190.5C 1315.36,1175.09 1320.86,1160.75 1329,1147.5C 1343.95,1133.59 1357.95,1134.59 1371,1150.5C 1375.23,1160.34 1373.89,1169.34 1367,1177.5C 1355.13,1187.78 1341.79,1195.78 1327,1201.5C 1325.08,1211.51 1325.08,1221.51 1327,1231.5C 1328.64,1234.23 1331.14,1235.56 1334.5,1235.5C 1354.49,1231.5 1372.83,1223.67 1389.5,1212C 1409.77,1198.41 1428.27,1182.58 1445,1164.5C 1449.85,1158.8 1453.68,1152.47 1456.5,1145.5C 1453.78,1138.39 1450.28,1131.72 1446,1125.5C 1427.84,1103.01 1410.84,1079.67 1395,1055.5C 1366.59,1003.81 1354.93,948.476 1360,889.5C 1360.77,883.183 1361.27,876.849 1361.5,870.5C 1366.15,874.143 1370.81,877.81 1375.5,881.5C 1369.31,938.69 1379.47,992.69 1406,1043.5C 1421.78,1068.62 1439.12,1092.62 1458,1115.5C 1462.27,1122.37 1466.27,1129.37 1470,1136.5C 1472.34,1146.16 1470.67,1155.16 1465,1163.5C 1455.9,1176.84 1445.06,1188.67 1432.5,1199C 1409.78,1218.7 1384.45,1234.37 1356.5,1246C 1344.65,1250.46 1332.65,1251.13 1320.5,1248C 1318,1246.83 1316.17,1245 1315,1242.5C 1312.73,1237.41 1311.39,1232.08 1311,1226.5C 1310.57,1219.9 1310.41,1213.56 1310.5,1207.5C 1278.96,1218.84 1246.46,1225.51 1213,1227.5C 1205.71,1227.61 1198.54,1226.78 1191.5,1225C 1184.14,1221.13 1180.81,1214.96 1181.5,1206.5C 1181.88,1200.44 1182.71,1194.44 1184,1188.5C 1186.3,1182.96 1188.13,1177.29 1189.5,1171.5C 1164.67,1173.55 1140.01,1172.38 1115.5,1168C 1109.1,1165.77 1106.1,1161.27 1106.5,1154.5C 1107.94,1143.56 1113.27,1135.06 1122.5,1129C 1139.93,1117.62 1158.59,1108.95 1178.5,1103C 1191.63,1099.14 1204.96,1096.14 1218.5,1094C 1163.71,1006.01 1151.04,912.348 1180.5,813C 1155.23,787.086 1147.56,756.586 1157.5,721.5C 1158.78,719.438 1159.61,717.104 1160,714.5C 1179.84,700.044 1198.17,683.711 1215,665.5C 1289.96,577.903 1338.96,477.569 1362,364.5C 1365.26,345.273 1366.09,325.94 1364.5,306.5C 1364.44,303.922 1365.11,301.589 1366.5,299.5C 1381.65,292.451 1397.65,289.618 1414.5,291C 1447.73,294.446 1476.73,307.446 1501.5,330C 1520.14,347.794 1534.97,368.294 1546,391.5C 1547.82,399.054 1548.99,406.721 1549.5,414.5C 1548.67,427.619 1547.01,440.619 1544.5,453.5 Z" /></g>
<g xmlns="http://www.w3.org/2000/svg"><path style="opacity:1" fill="#FFFFFF" d="M 1418.5,343.5 C 1405.54,333.209 1392.87,322.543 1380.5,311.5C 1380.47,310.503 1380.97,309.836 1382,309.5C 1393.68,306.915 1405.51,305.915 1417.5,306.5C 1418.32,318.815 1418.65,331.148 1418.5,343.5 Z" /></g>
<g xmlns="http://www.w3.org/2000/svg"><path style="opacity:1" fill="#FFFFFF" d="M 1530.5,441.5 C 1497.91,414.581 1465.91,386.914 1434.5,358.5C 1434.28,342.131 1434.28,325.798 1434.5,309.5C 1479.1,324.6 1511.27,353.6 1531,396.5C 1535.22,411.618 1535.05,426.618 1530.5,441.5 Z" /></g>
<g xmlns="http://www.w3.org/2000/svg"><path style="opacity:1" fill="#7774FF" d="M 1380.5,311.5 C 1392.87,322.543 1405.54,333.209 1418.5,343.5C 1418.44,396.626 1408.94,447.959 1390,497.5C 1368.68,553.506 1338.68,604.173 1300,649.5C 1296.34,659.039 1299.51,663.206 1309.5,662C 1384.86,575.058 1426.53,473.891 1434.5,358.5C 1465.91,386.914 1497.91,414.581 1530.5,441.5C 1528.94,452.389 1526.44,463.056 1523,473.5C 1486.5,580.196 1432.17,676.529 1360,762.5C 1345.07,778.433 1329.24,793.266 1312.5,807C 1307.81,810.677 1302.81,813.844 1297.5,816.5C 1289.85,810.848 1282.52,804.848 1275.5,798.5C 1359.17,718.909 1422.67,625.242 1466,517.5C 1472.47,500.08 1478.14,482.413 1483,464.5C 1484.61,455.782 1481.11,451.949 1472.5,453C 1471.33,454.167 1470.17,455.333 1469,456.5C 1456.22,504.823 1437.55,550.823 1413,594.5C 1382.66,649.534 1346.66,700.534 1305,747.5C 1290.94,762.067 1276.44,776.067 1261.5,789.5C 1248.21,778.521 1234.21,768.521 1219.5,759.5C 1215.38,756.266 1211.04,753.266 1206.5,750.5C 1195.1,743.105 1183.43,736.105 1171.5,729.5C 1171.89,727.821 1172.39,726.154 1173,724.5C 1216.12,690.725 1252.12,650.725 1281,604.5C 1315.31,550.21 1342.31,492.543 1362,431.5C 1369.2,406.189 1374.86,380.522 1379,354.5C 1380.1,340.187 1380.6,325.854 1380.5,311.5 Z" /></g>
<g xmlns="http://www.w3.org/2000/svg"><path style="opacity:1" fill="#f9f9f8" d="M 1158.5,351.5 C 1113.48,399.688 1099.31,456.022 1116,520.5C 1122.21,539.588 1131.04,557.255 1142.5,573.5C 1093.02,584.17 1052.18,569.837 1020,530.5C 991.903,488.645 989.57,445.312 1013,400.5C 1041.27,357.618 1081.1,338.785 1132.5,344C 1141.56,345.264 1150.23,347.764 1158.5,351.5 Z" /></g>
<g xmlns="http://www.w3.org/2000/svg"><path style="opacity:1" fill="#151515" d="M 1158.5,351.5 C 1193.9,366.656 1217.07,392.656 1228,429.5C 1239.69,484.681 1222.53,528.181 1176.5,560C 1166,566.686 1154.67,571.186 1142.5,573.5C 1131.04,557.255 1122.21,539.588 1116,520.5C 1099.31,456.022 1113.48,399.688 1158.5,351.5 Z" /></g>
<g xmlns="http://www.w3.org/2000/svg"><path style="opacity:1" fill="#7774FF" d="M 2109.5,670.5 C 2109.5,672.5 2109.5,674.5 2109.5,676.5C 2102.31,676.175 2095.31,676.509 2088.5,677.5C 2049.9,679.235 2012.9,687.735 1977.5,703C 1962.47,710.014 1947.47,717.347 1932.5,725C 1903.17,742 1873.83,759 1844.5,776C 1821.28,789.07 1796.94,799.404 1771.5,807C 1733.9,815.382 1695.9,817.715 1657.5,814C 1572.64,802.799 1512.47,758.299 1477,680.5C 1473.67,672.5 1470.33,664.5 1467,656.5C 1465.14,651.609 1464.14,646.609 1464,641.5C 1485.86,605.777 1504.53,568.444 1520,529.5C 1530.3,568.098 1547.63,603.098 1572,634.5C 1615.3,682.256 1668.8,699.756 1732.5,687C 1740.51,684.33 1748.51,681.663 1756.5,679C 1774.05,670.892 1791.38,662.225 1808.5,653C 1844.33,631.918 1880,610.585 1915.5,589C 1964.73,561.016 2017.73,546.683 2074.5,546C 2082.01,555.182 2087.84,565.348 2092,576.5C 2102.25,606.982 2108.08,638.315 2109.5,670.5 Z" /></g>
<g xmlns="http://www.w3.org/2000/svg"><path style="opacity:1" fill="#151515" d="M 731.5,584.5 C 733.833,589.167 736.167,593.833 738.5,598.5C 716.536,615.628 698.703,636.295 685,660.5C 679.473,670.221 674.473,680.221 670,690.5C 659.47,719.09 649.136,747.757 639,776.5C 622.896,821.899 597.396,861.066 562.5,894C 587.946,890.944 609.279,879.944 626.5,861C 632.594,859.683 636.261,862.016 637.5,868C 634.201,889.629 630.201,911.129 625.5,932.5C 625.733,933.932 626.4,934.432 627.5,934C 643.387,918.72 656.22,901.22 666,881.5C 688.968,833.263 705.968,782.929 717,730.5C 726.097,700.291 742.263,674.624 765.5,653.5C 768.397,658.167 770.73,663.167 772.5,668.5C 753.79,685.898 740.623,706.898 733,731.5C 722.077,782.207 706.077,831.207 685,878.5C 672.888,904.23 656.722,927.064 636.5,947C 630.464,952.019 623.797,956.019 616.5,959C 607.667,960.833 604.167,957.333 606,948.5C 611.26,928.951 615.093,909.284 617.5,889.5C 597.098,903.799 574.431,910.299 549.5,909C 544.76,908.315 540.593,906.481 537,903.5C 536.333,900.5 536.333,897.5 537,894.5C 576.889,862.944 605.556,823.277 623,775.5C 633.426,744.55 644.426,713.883 656,683.5C 670.437,649.793 690.937,620.293 717.5,595C 721.761,590.898 726.428,587.398 731.5,584.5 Z" /></g>
<g xmlns="http://www.w3.org/2000/svg"><path style="opacity:1" fill="#FFFFFF" d="M 738.5,598.5 C 747.737,616.641 756.737,634.974 765.5,653.5C 742.263,674.624 726.097,700.291 717,730.5C 705.968,782.929 688.968,833.263 666,881.5C 656.22,901.22 643.387,918.72 627.5,934C 626.4,934.432 625.733,933.932 625.5,932.5C 630.201,911.129 634.201,889.629 637.5,868C 636.261,862.016 632.594,859.683 626.5,861C 609.279,879.944 587.946,890.944 562.5,894C 597.396,861.066 622.896,821.899 639,776.5C 649.136,747.757 659.47,719.09 670,690.5C 674.473,680.221 679.473,670.221 685,660.5C 698.703,636.295 716.536,615.628 738.5,598.5 Z" /></g>
<g xmlns="http://www.w3.org/2000/svg"><path style="opacity:1" fill="#E2F163" d="M 3013.5,578.5 C 3031.01,634.521 3048.85,690.521 3067,746.5C 3101.43,705.314 3136.1,664.314 3171,623.5C 3147.92,676.006 3124.42,728.506 3100.5,781C 3101.44,782.477 3102.78,783.477 3104.5,784C 3151.83,801.667 3199.17,819.333 3246.5,837C 3199.83,837.167 3153.16,837.667 3106.5,838.5C 3133.5,882.188 3159.66,926.188 3185,970.5C 3141.41,940.623 3097.91,910.623 3054.5,880.5C 3031.96,923.806 3009.8,967.14 2988,1010.5C 2990.56,962.007 2993.39,913.507 2996.5,865C 2996.17,863.167 2995.83,861.333 2995.5,859.5C 2955.34,875.492 2915.34,890.826 2875.5,905.5C 2908.8,873.529 2941.8,841.196 2974.5,808.5C 2937.01,773.844 2899.34,739.344 2861.5,705C 2905.66,722.177 2949.66,740.177 2993.5,759C 2996.15,760.115 2998.82,760.782 3001.5,761C 3005.78,700.244 3009.78,639.411 3013.5,578.5 Z" /></g>
<g xmlns="http://www.w3.org/2000/svg"><path style="opacity:1" fill="#7774FF" d="M 1451.5,661.5 C 1461.87,686.244 1474.37,709.911 1489,732.5C 1533.57,793.376 1593.74,825.876 1669.5,830C 1713.21,832.31 1756.54,829.31 1799.5,821C 1870.55,805.926 1938.89,783.426 2004.5,753.5C 2009.48,774.171 2012.32,795.171 2013,816.5C 2013.8,842.516 2013.47,868.516 2012,894.5C 2011.07,896.552 2009.57,898.052 2007.5,899C 1917.95,946.709 1822.62,965.042 1721.5,954C 1669.1,947.09 1620.1,930.423 1574.5,904C 1496.61,854.072 1449.28,783.572 1432.5,692.5C 1439.1,682.306 1445.43,671.972 1451.5,661.5 Z" /></g>
<g xmlns="http://www.w3.org/2000/svg"><path style="opacity:1" fill="#2B2B2B" d="M 2109.5,670.5 C 2110.47,672.607 2110.8,674.941 2110.5,677.5C 2103.17,677.5 2095.83,677.5 2088.5,677.5C 2095.31,676.509 2102.31,676.175 2109.5,676.5C 2109.5,674.5 2109.5,672.5 2109.5,670.5 Z" /></g>
<g xmlns="http://www.w3.org/2000/svg"><path style="opacity:1" fill="#151515" d="M 2376.5,706.5 C 2345.01,743.782 2321.51,785.782 2306,832.5C 2285.07,904.251 2291.07,973.584 2324,1040.5C 2328,1047.17 2332,1053.83 2336,1060.5C 2350.09,1079.68 2364.42,1098.68 2379,1117.5C 2383.19,1123.88 2386.86,1130.54 2390,1137.5C 2391.82,1148.72 2389.15,1158.72 2382,1167.5C 2356.1,1198.74 2324.93,1223.24 2288.5,1241C 2277.39,1246.19 2265.72,1249.36 2253.5,1250.5C 2239.51,1251 2232.01,1244.34 2231,1230.5C 2230.83,1222.81 2230.33,1215.15 2229.5,1207.5C 2197.95,1218.85 2165.45,1225.51 2132,1227.5C 2123.44,1227.94 2115.27,1226.44 2107.5,1223C 2104.89,1221.06 2103.06,1218.56 2102,1215.5C 2100.57,1200.47 2103.07,1186.14 2109.5,1172.5C 2090.53,1172.89 2071.53,1172.39 2052.5,1171C 2044,1170.9 2036.17,1168.73 2029,1164.5C 2025.45,1156.67 2025.78,1149.01 2030,1141.5C 2035.26,1134.24 2041.76,1128.41 2049.5,1124C 2061.12,1117.36 2073.12,1111.69 2085.5,1107C 2102.69,1101.87 2120.02,1097.37 2137.5,1093.5C 2107.23,1044.01 2089.56,990.343 2084.5,932.5C 2089.21,928.454 2094.21,924.788 2099.5,921.5C 2102.75,985.419 2122.25,1043.75 2158,1096.5C 2160.41,1101.03 2159.58,1104.86 2155.5,1108C 2125.09,1110.36 2096.09,1118.03 2068.5,1131C 2059.5,1135.67 2051.33,1141.5 2044,1148.5C 2042.81,1150.04 2042.48,1151.71 2043,1153.5C 2050.97,1155.73 2059.13,1156.9 2067.5,1157C 2084.18,1157.69 2100.85,1157.35 2117.5,1156C 2124.42,1143.42 2133.75,1133.09 2145.5,1125C 2162.37,1118.86 2174.87,1123.69 2183,1139.5C 2184.78,1147.5 2182.28,1153.67 2175.5,1158C 2160.93,1164.81 2145.6,1168.81 2129.5,1170C 2128.58,1170.37 2127.75,1170.87 2127,1171.5C 2119.99,1183.66 2116.83,1196.66 2117.5,1210.5C 2125.39,1212.44 2133.39,1212.94 2141.5,1212C 2171.22,1208.32 2200.22,1201.65 2228.5,1192C 2230.28,1191.19 2231.78,1190.02 2233,1188.5C 2235.24,1174.04 2240.24,1160.71 2248,1148.5C 2258.79,1135.75 2270.96,1134.25 2284.5,1144C 2294.7,1152.78 2296.2,1162.94 2289,1174.5C 2282.99,1181.08 2276.16,1186.58 2268.5,1191C 2261.38,1194.64 2254.21,1198.14 2247,1201.5C 2244.92,1212.54 2245.09,1223.54 2247.5,1234.5C 2257.17,1235.5 2266.51,1234 2275.5,1230C 2310.83,1213.67 2341.33,1190.84 2367,1161.5C 2369.92,1157.33 2372.58,1153 2375,1148.5C 2375.67,1146.5 2375.67,1144.5 2375,1142.5C 2372.59,1137.34 2369.92,1132.34 2367,1127.5C 2354,1110.5 2341,1093.5 2328,1076.5C 2289,1018.83 2273,955.164 2280,885.5C 2284.88,838.987 2299.21,795.654 2323,755.5C 2329.08,746.265 2334.92,736.931 2340.5,727.5C 2352,719.674 2364,712.674 2376.5,706.5 Z" /></g>
<g xmlns="http://www.w3.org/2000/svg"><path style="opacity:1" fill="#FFFFFF" d="M 2340.5,727.5 C 2334.92,736.931 2329.08,746.265 2323,755.5C 2299.21,795.654 2284.88,838.987 2280,885.5C 2273,955.164 2289,1018.83 2328,1076.5C 2341,1093.5 2354,1110.5 2367,1127.5C 2369.92,1132.34 2372.59,1137.34 2375,1142.5C 2375.67,1144.5 2375.67,1146.5 2375,1148.5C 2372.58,1153 2369.92,1157.33 2367,1161.5C 2341.33,1190.84 2310.83,1213.67 2275.5,1230C 2266.51,1234 2257.17,1235.5 2247.5,1234.5C 2245.09,1223.54 2244.92,1212.54 2247,1201.5C 2254.21,1198.14 2261.38,1194.64 2268.5,1191C 2276.16,1186.58 2282.99,1181.08 2289,1174.5C 2296.2,1162.94 2294.7,1152.78 2284.5,1144C 2270.96,1134.25 2258.79,1135.75 2248,1148.5C 2240.24,1160.71 2235.24,1174.04 2233,1188.5C 2231.78,1190.02 2230.28,1191.19 2228.5,1192C 2200.22,1201.65 2171.22,1208.32 2141.5,1212C 2133.39,1212.94 2125.39,1212.44 2117.5,1210.5C 2116.83,1196.66 2119.99,1183.66 2127,1171.5C 2127.75,1170.87 2128.58,1170.37 2129.5,1170C 2145.6,1168.81 2160.93,1164.81 2175.5,1158C 2182.28,1153.67 2184.78,1147.5 2183,1139.5C 2174.87,1123.69 2162.37,1118.86 2145.5,1125C 2133.75,1133.09 2124.42,1143.42 2117.5,1156C 2100.85,1157.35 2084.18,1157.69 2067.5,1157C 2059.13,1156.9 2050.97,1155.73 2043,1153.5C 2042.48,1151.71 2042.81,1150.04 2044,1148.5C 2051.33,1141.5 2059.5,1135.67 2068.5,1131C 2096.09,1118.03 2125.09,1110.36 2155.5,1108C 2159.58,1104.86 2160.41,1101.03 2158,1096.5C 2122.25,1043.75 2102.75,985.419 2099.5,921.5C 2154.19,877.327 2208.19,832.16 2261.5,786C 2286.79,765.028 2313.13,745.528 2340.5,727.5 Z" /></g>
<g xmlns="http://www.w3.org/2000/svg"><path style="opacity:1" fill="#FFFFFF" d="M 1171.5,729.5 C 1183.43,736.105 1195.1,743.105 1206.5,750.5C 1199.09,765.322 1192.25,780.322 1186,795.5C 1169.53,776.211 1164.7,754.211 1171.5,729.5 Z" /></g>
<g xmlns="http://www.w3.org/2000/svg"><path style="opacity:1" fill="#FFFFFF" d="M 1219.5,759.5 C 1234.21,768.521 1248.21,778.521 1261.5,789.5C 1249.5,800.328 1236.5,809.828 1222.5,818C 1220.83,818.667 1219.17,818.667 1217.5,818C 1210.68,815.091 1204.34,811.424 1198.5,807C 1204.54,790.744 1211.54,774.911 1219.5,759.5 Z" /></g>
<g xmlns="http://www.w3.org/2000/svg"><path style="opacity:1" fill="#FFFFFF" d="M 1275.5,798.5 C 1282.52,804.848 1289.85,810.848 1297.5,816.5C 1285.43,824.524 1272.1,829.191 1257.5,830.5C 1251.21,829.927 1245.21,828.427 1239.5,826C 1251.95,817.384 1263.95,808.218 1275.5,798.5 Z" /></g>
<g xmlns="http://www.w3.org/2000/svg"><path style="opacity:1" fill="#FFFFFF" d="M 1310.5,827.5 C 1327.82,841.487 1344.82,855.82 1361.5,870.5C 1361.27,876.849 1360.77,883.183 1360,889.5C 1354.93,948.476 1366.59,1003.81 1395,1055.5C 1410.84,1079.67 1427.84,1103.01 1446,1125.5C 1450.28,1131.72 1453.78,1138.39 1456.5,1145.5C 1453.68,1152.47 1449.85,1158.8 1445,1164.5C 1428.27,1182.58 1409.77,1198.41 1389.5,1212C 1372.83,1223.67 1354.49,1231.5 1334.5,1235.5C 1331.14,1235.56 1328.64,1234.23 1327,1231.5C 1325.08,1221.51 1325.08,1211.51 1327,1201.5C 1341.79,1195.78 1355.13,1187.78 1367,1177.5C 1373.89,1169.34 1375.23,1160.34 1371,1150.5C 1357.95,1134.59 1343.95,1133.59 1329,1147.5C 1320.86,1160.75 1315.36,1175.09 1312.5,1190.5C 1296.83,1196.45 1280.83,1201.28 1264.5,1205C 1244.47,1210.15 1224.14,1212.48 1203.5,1212C 1200.99,1211.91 1198.83,1211.07 1197,1209.5C 1197.28,1195.48 1201.12,1182.48 1208.5,1170.5C 1223.64,1168.97 1238.3,1165.47 1252.5,1160C 1263.1,1154.64 1266.27,1146.48 1262,1135.5C 1252.1,1122.32 1239.6,1119.15 1224.5,1126C 1213.02,1133.81 1204.02,1143.81 1197.5,1156C 1172.43,1158.31 1147.43,1157.81 1122.5,1154.5C 1122.49,1152.69 1122.99,1151.02 1124,1149.5C 1126.83,1146.67 1129.67,1143.83 1132.5,1141C 1164.04,1121.6 1198.37,1110.6 1235.5,1108C 1239.12,1105.84 1240.29,1102.67 1239,1098.5C 1223.7,1075.24 1211.04,1050.58 1201,1024.5C 1175.26,957.979 1172.93,890.646 1194,822.5C 1213.25,835.116 1234.41,842.782 1257.5,845.5C 1276.72,843.871 1294.39,837.871 1310.5,827.5 Z" /></g>
<g xmlns="http://www.w3.org/2000/svg"><path style="opacity:1" fill="#E2F163" d="M 331.5,1020.5 C 353.226,1086.03 374.06,1152.03 394,1218.5C 434.646,1170.35 475.479,1122.35 516.5,1074.5C 490.281,1134.63 463.114,1194.63 435,1254.5C 434.187,1256.44 433.687,1258.44 433.5,1260.5C 490.661,1281.07 547.661,1302.24 604.5,1324C 549.833,1324.33 495.167,1324.67 440.5,1325C 471.249,1376.5 502.249,1427.83 533.5,1479C 531.193,1478.36 528.859,1477.36 526.5,1476C 477.848,1441.67 428.848,1407.84 379.5,1374.5C 353.508,1424.68 328.008,1475.02 303,1525.5C 302.333,1518.17 302.333,1510.83 303,1503.5C 305.885,1453.47 309.052,1403.47 312.5,1353.5C 312.167,1352.17 311.833,1350.83 311.5,1349.5C 264.606,1368.18 217.606,1386.35 170.5,1404C 209.651,1366.68 248.317,1328.85 286.5,1290.5C 242.342,1249.84 198.009,1209.34 153.5,1169C 208.534,1191.03 263.534,1213.53 318.5,1236.5C 323.497,1164.54 327.831,1092.54 331.5,1020.5 Z" /></g>
<g xmlns="http://www.w3.org/2000/svg"><path style="opacity:1" fill="#151515" d="M 1141.5,1504.5 C 1131.78,1508.69 1122.12,1512.86 1112.5,1517C 1019.67,1548.54 925.007,1573.54 828.5,1592C 803.335,1596.67 778.002,1600.17 752.5,1602.5C 746.435,1602.74 740.435,1602.24 734.5,1601C 730.214,1596.94 727.048,1592.1 725,1586.5C 716.315,1561.28 714.648,1535.61 720,1509.5C 723.574,1495.97 731.241,1485.64 743,1478.5C 745.591,1452.62 749.591,1426.95 755,1401.5C 769.888,1328.12 790.221,1256.46 816,1186.5C 820.436,1177.13 825.27,1167.96 830.5,1159C 801.477,1152.17 784.31,1134.01 779,1104.5C 775.847,1081.59 784.014,1064.09 803.5,1052C 820.359,1042.65 838.026,1040.99 856.5,1047C 872.945,1056.47 882.778,1070.63 886,1089.5C 889.777,1110.9 884.61,1129.74 870.5,1146C 884.673,1154.51 898.006,1164.17 910.5,1175C 973.606,1233.86 1030.77,1297.7 1082,1366.5C 1087.75,1374.34 1092.75,1382.67 1097,1391.5C 1104.44,1392.8 1111.28,1395.64 1117.5,1400C 1141.91,1422.48 1156.24,1450.14 1160.5,1483C 1160.05,1489.47 1157.05,1494.47 1151.5,1498C 1147.93,1499.94 1144.6,1502.11 1141.5,1504.5 Z" /></g>
<g xmlns="http://www.w3.org/2000/svg"><path style="opacity:1" fill="#FFFFFF" d="M 828.5,1058.5 C 852.383,1057.54 866.55,1068.87 871,1092.5C 873.689,1109.09 869.522,1123.59 858.5,1136C 843.887,1145.96 829.22,1145.96 814.5,1136C 799.328,1124.14 792.495,1108.64 794,1089.5C 794.879,1084.86 796.545,1080.53 799,1076.5C 806.956,1067.28 816.789,1061.28 828.5,1058.5 Z" /></g>
<g xmlns="http://www.w3.org/2000/svg"><path style="opacity:1" fill="#FFFFFF" d="M 1235.5,1137.5 C 1241.14,1136.99 1245.47,1139.15 1248.5,1144C 1239.26,1149.48 1229.26,1152.48 1218.5,1153C 1223.11,1146.55 1228.78,1141.38 1235.5,1137.5 Z" /></g>
<g xmlns="http://www.w3.org/2000/svg"><path style="opacity:1" fill="#FFFFFF" d="M 2155.5,1137.5 C 2160.58,1137.37 2164.58,1139.37 2167.5,1143.5C 2167.02,1144.48 2166.36,1145.31 2165.5,1146C 2156.42,1149.6 2147.09,1151.94 2137.5,1153C 2142.22,1146.17 2148.22,1141 2155.5,1137.5 Z" /></g>
<g xmlns="http://www.w3.org/2000/svg"><path style="opacity:1" fill="#FFFFFF" d="M 1346.5,1152.5 C 1352.8,1153.32 1356.64,1156.65 1358,1162.5C 1350.95,1171.45 1342.11,1178.12 1331.5,1182.5C 1332.3,1173.52 1335.47,1165.18 1341,1157.5C 1342.73,1155.6 1344.56,1153.93 1346.5,1152.5 Z" /></g>
<g xmlns="http://www.w3.org/2000/svg"><path style="opacity:1" fill="#FFFFFF" d="M 2266.5,1152.5 C 2271.94,1153.56 2275.94,1156.56 2278.5,1161.5C 2275.36,1166.48 2271.36,1170.64 2266.5,1174C 2261.41,1176.96 2256.25,1179.79 2251,1182.5C 2252.22,1170.39 2257.39,1160.39 2266.5,1152.5 Z" /></g>
<g xmlns="http://www.w3.org/2000/svg"><path style="opacity:1" fill="#FFFFFF" d="M 1060.5,1412.5 C 994.209,1336.37 927.709,1260.37 861,1184.5C 834.726,1282.59 809.226,1380.93 784.5,1479.5C 775.853,1480.77 767.186,1480.77 758.5,1479.5C 761.121,1451.22 765.621,1423.22 772,1395.5C 784.704,1337.02 800.371,1279.35 819,1222.5C 825.919,1201 835.252,1180.67 847,1161.5C 848.765,1159.23 850.932,1157.56 853.5,1156.5C 863.126,1159.15 871.792,1163.65 879.5,1170C 914.866,1198.7 947.699,1230.2 978,1264.5C 1008.51,1298.33 1037.51,1333.33 1065,1369.5C 1071.67,1378.83 1077.83,1388.49 1083.5,1398.5C 1076.64,1404.43 1068.98,1409.1 1060.5,1412.5 Z" /></g>
<g xmlns="http://www.w3.org/2000/svg"><path style="opacity:1" fill="#AA96F8" d="M 1060.5,1412.5 C 1014.28,1430.19 966.944,1444.69 918.5,1456C 891.386,1462.56 864.053,1468.22 836.5,1473C 819.206,1475.59 801.873,1477.76 784.5,1479.5C 809.226,1380.93 834.726,1282.59 861,1184.5C 927.709,1260.37 994.209,1336.37 1060.5,1412.5 Z" /></g>
<g xmlns="http://www.w3.org/2000/svg"><path style="opacity:1" fill="#FFFFFF" d="M 1130.5,1491.5 C 1117.54,1476.53 1104.2,1461.87 1090.5,1447.5C 1090.57,1445.97 1089.91,1444.97 1088.5,1444.5C 1084.71,1437.76 1081.04,1430.92 1077.5,1424C 1081.88,1420.63 1086.55,1417.63 1091.5,1415C 1094.04,1412.8 1096.21,1410.3 1098,1407.5C 1101.47,1408.32 1104.64,1409.82 1107.5,1412C 1127.59,1431.01 1140.26,1454.18 1145.5,1481.5C 1141.58,1486.42 1136.58,1489.75 1130.5,1491.5 Z" /></g>
<g xmlns="http://www.w3.org/2000/svg"><path style="opacity:1" fill="#AA96F8" d="M 1059.5,1430.5 C 1061.14,1430.29 1062.64,1430.62 1064,1431.5C 1076.58,1455.66 1089.41,1479.66 1102.5,1503.5C 1088.94,1508.48 1075.27,1513.31 1061.5,1518C 1055.55,1519.81 1049.55,1521.31 1043.5,1522.5C 1035.85,1496.87 1027.18,1471.54 1017.5,1446.5C 1031.82,1441.73 1045.82,1436.4 1059.5,1430.5 Z" /></g>
<g xmlns="http://www.w3.org/2000/svg"><path style="opacity:1" fill="#AA96F8" d="M 1088.5,1444.5 C 1089.91,1444.97 1090.57,1445.97 1090.5,1447.5C 1089.09,1447.03 1088.43,1446.03 1088.5,1444.5 Z" /></g>
<g xmlns="http://www.w3.org/2000/svg"><path style="opacity:1" fill="#AA96F8" d="M 999.5,1450.5 C 1000.83,1450.5 1002.17,1450.5 1003.5,1450.5C 1011.25,1476.17 1019.92,1501.5 1029.5,1526.5C 1021.03,1529.9 1012.37,1532.73 1003.5,1535C 989.484,1538.5 975.484,1542 961.5,1545.5C 954.794,1519.23 948.627,1492.9 943,1466.5C 962.045,1461.53 980.879,1456.2 999.5,1450.5 Z" /></g>
<g xmlns="http://www.w3.org/2000/svg"><path style="opacity:1" fill="#AA96F8" d="M 1090.5,1447.5 C 1104.2,1461.87 1117.54,1476.53 1130.5,1491.5C 1126.72,1494.06 1122.56,1496.06 1118,1497.5C 1108.06,1481.29 1098.89,1464.62 1090.5,1447.5 Z" /></g>
<g xmlns="http://www.w3.org/2000/svg"><path style="opacity:1" fill="#AA96F8" d="M 1536.5,1818.5 C 1533.6,1823.86 1531.26,1829.53 1529.5,1835.5C 1518.98,1859.54 1508.65,1883.71 1498.5,1908C 1522.35,1929.35 1546.35,1950.52 1570.5,1971.5C 1575.18,1976.18 1580.18,1980.51 1585.5,1984.5C 1676.97,2065.13 1768.64,2145.63 1860.5,2226C 1719.85,2246.94 1579.18,2267.77 1438.5,2288.5C 1433.05,2288.95 1427.71,2289.95 1422.5,2291.5C 1378.76,2297.37 1335.09,2303.71 1291.5,2310.5C 1279.83,2358.5 1268.17,2406.5 1256.5,2454.5C 1253.54,2464.31 1250.88,2474.31 1248.5,2484.5C 1229.16,2562.19 1209.66,2639.86 1190,2717.5C 1110.3,2622.98 1030.47,2528.64 950.5,2434.5C 946.917,2428.58 942.584,2423.25 937.5,2418.5C 932.551,2411.2 926.718,2404.87 920,2399.5C 852.673,2418.42 785.506,2437.76 718.5,2457.5C 712.888,2459.29 707.221,2460.96 701.5,2462.5C 605.498,2490.27 509.498,2518.1 413.5,2546C 411.833,2546.67 410.167,2546.67 408.5,2546C 457.991,2444.19 507.324,2342.35 556.5,2240.5C 559.684,2234.79 562.35,2228.79 564.5,2222.5C 577.883,2196.23 590.883,2169.73 603.5,2143C 603.333,2142.17 603.167,2141.33 603,2140.5C 579.936,2116.94 557.103,2093.27 534.5,2069.5C 530.833,2065.17 526.833,2061.17 522.5,2057.5C 432.037,1962.54 341.37,1867.7 250.5,1773C 408.997,1749.38 567.663,1726.55 726.5,1704.5C 734.562,1670.32 743.229,1636.32 752.5,1602.5C 778.002,1600.17 803.335,1596.67 828.5,1592C 925.007,1573.54 1019.67,1548.54 1112.5,1517C 1122.12,1512.86 1131.78,1508.69 1141.5,1504.5C 1166.83,1533.33 1192,1562.33 1217,1591.5C 1217.96,1592.89 1219.29,1593.56 1221,1593.5C 1375.83,1550.61 1530.67,1507.61 1685.5,1464.5C 1685.83,1465 1686.17,1465.5 1686.5,1466C 1636.58,1583.66 1586.58,1701.16 1536.5,1818.5 Z" /></g>
<g xmlns="http://www.w3.org/2000/svg"><path style="opacity:1" fill="#AA96F8" d="M 924.5,1470.5 C 925.5,1470.5 926.5,1470.5 927.5,1470.5C 933.84,1496.86 940.007,1523.19 946,1549.5C 922.045,1556.03 897.878,1561.7 873.5,1566.5C 869.383,1539.8 865.05,1513.13 860.5,1486.5C 860.833,1485.83 861.167,1485.17 861.5,1484.5C 882.685,1480.07 903.685,1475.4 924.5,1470.5 Z" /></g>
<g xmlns="http://www.w3.org/2000/svg"><path style="opacity:1" fill="#AA96F8" d="M 840.5,1487.5 C 842.167,1487.5 843.833,1487.5 845.5,1487.5C 849.292,1513.92 853.625,1540.25 858.5,1566.5C 858.167,1567.5 857.833,1568.5 857.5,1569.5C 838.963,1573.82 820.297,1577.65 801.5,1581C 798.571,1581.78 795.737,1581.61 793,1580.5C 790.334,1552.17 787.834,1523.83 785.5,1495.5C 804.137,1493.88 822.47,1491.22 840.5,1487.5 Z" /></g>
<g xmlns="http://www.w3.org/2000/svg"><path style="opacity:1" fill="#FFFFFF" d="M 772.5,1524.5 C 767.167,1545.17 761.833,1565.83 756.5,1586.5C 752.019,1587.65 747.352,1587.82 742.5,1587C 733.108,1566.81 729.941,1545.64 733,1523.5C 734.239,1511.86 739.072,1502.02 747.5,1494C 755.063,1495.04 762.73,1495.87 770.5,1496.5C 771.625,1505.79 772.291,1515.12 772.5,1524.5 Z" /></g>
<g xmlns="http://www.w3.org/2000/svg"><path style="opacity:1" fill="#AA96F8" d="M 772.5,1524.5 C 774.872,1544.31 776.372,1564.31 777,1584.5C 770.285,1585.91 763.452,1586.58 756.5,1586.5C 761.833,1565.83 767.167,1545.17 772.5,1524.5 Z" /></g>
<g xmlns="http://www.w3.org/2000/svg"><path style="opacity:1" fill="#151515" d="M 1311.5,1886.5 C 1273.18,1870.68 1241.35,1846.35 1216,1813.5C 1202.07,1790.55 1192.57,1765.88 1187.5,1739.5C 1231.94,1721.31 1271.11,1729.31 1305,1763.5C 1332.04,1797.04 1337.04,1833.71 1320,1873.5C 1317.64,1878.24 1314.81,1882.57 1311.5,1886.5 Z" /></g>
<g xmlns="http://www.w3.org/2000/svg"><path style="opacity:1" fill="#FFFFFF" d="M 1187.5,1739.5 C 1192.57,1765.88 1202.07,1790.55 1216,1813.5C 1241.35,1846.35 1273.18,1870.68 1311.5,1886.5C 1300.6,1903.55 1285.6,1915.72 1266.5,1923C 1222.47,1937.47 1184.64,1927.97 1153,1894.5C 1128.96,1863.49 1123.63,1829.49 1137,1792.5C 1147.21,1768.46 1164.04,1750.79 1187.5,1739.5 Z" /></g>
<g xmlns="http://www.w3.org/2000/svg"><path style="opacity:1" fill="#151515" d="M 914.5,1951.5 C 880.896,1937.76 851.729,1917.43 827,1890.5C 808.008,1865.17 795.508,1836.84 789.5,1805.5C 792.851,1803.23 796.518,1801.39 800.5,1800C 848.449,1787.31 886.949,1800.81 916,1840.5C 931.169,1865.31 935.502,1891.98 929,1920.5C 925.731,1931.7 920.897,1942.03 914.5,1951.5 Z" /></g>
<g xmlns="http://www.w3.org/2000/svg"><path style="opacity:1" fill="#151515" d="M 1585.5,1984.5 C 1580.18,1980.51 1575.18,1976.18 1570.5,1971.5C 1606.05,1963.44 1642.05,1959.94 1678.5,1961C 1689.57,1961.3 1700.57,1962.3 1711.5,1964C 1743.08,1997.92 1775.75,2030.92 1809.5,2063C 1820.88,2072.71 1832.54,2082.05 1844.5,2091C 1851.19,2095.84 1858.52,2099.34 1866.5,2101.5C 1869.85,2101.33 1871.52,2099.5 1871.5,2096C 1869.44,2085.48 1865.6,2075.65 1860,2066.5C 1839.26,2032.36 1815.59,2000.36 1789,1970.5C 1787,1966.83 1787,1963.17 1789,1959.5C 1790.74,1958.11 1792.74,1957.44 1795,1957.5C 1848.42,1967.19 1902.25,1972.03 1956.5,1972C 1967.72,1972.02 1978.39,1969.69 1988.5,1965C 1992.41,1960.21 1994.24,1954.71 1994,1948.5C 1993.48,1947.48 1992.65,1946.82 1991.5,1946.5C 1933.11,1934.51 1874.11,1928.35 1814.5,1928C 1809.43,1925.02 1808.27,1920.85 1811,1915.5C 1811.75,1914.87 1812.58,1914.37 1813.5,1914C 1872.75,1913.22 1931.42,1918.72 1989.5,1930.5C 1983.82,1913.3 1975.15,1897.8 1963.5,1884C 1904.07,1876.05 1844.41,1873.05 1784.5,1875C 1779.01,1871.39 1778.35,1867.06 1782.5,1862C 1786.38,1860.81 1790.38,1860.14 1794.5,1860C 1816.83,1859.33 1839.17,1859.33 1861.5,1860C 1890.56,1861.54 1919.56,1863.54 1948.5,1866C 1931.31,1847.41 1910.64,1834.41 1886.5,1827C 1840.37,1819.07 1793.87,1815.24 1747,1815.5C 1673.87,1815.8 1601.37,1822.47 1529.5,1835.5C 1531.26,1829.53 1533.6,1823.86 1536.5,1818.5C 1638.54,1801.41 1741.2,1796.91 1844.5,1805C 1864.8,1807.16 1884.8,1810.83 1904.5,1816C 1952.05,1839.58 1985.55,1876.08 2005,1925.5C 2009.28,1938.36 2009.95,1951.36 2007,1964.5C 2003.26,1974.57 1996.09,1980.74 1985.5,1983C 1965.36,1987.06 1945.03,1988.39 1924.5,1987C 1889.17,1985.18 1854,1981.68 1819,1976.5C 1817.83,1976.83 1816.67,1977.17 1815.5,1977.5C 1835.13,2001.44 1853.3,2026.44 1870,2052.5C 1875.81,2063.11 1880.81,2074.11 1885,2085.5C 1888.92,2112.91 1877.75,2122.07 1851.5,2113C 1838.14,2105.32 1825.47,2096.66 1813.5,2087C 1774.5,2053.33 1738.17,2017 1704.5,1978C 1664.47,1973.78 1624.8,1975.94 1585.5,1984.5 Z" /></g>
<g xmlns="http://www.w3.org/2000/svg"><path style="opacity:1" fill="#FFFFFF" d="M 789.5,1805.5 C 795.508,1836.84 808.008,1865.17 827,1890.5C 851.729,1917.43 880.896,1937.76 914.5,1951.5C 894.53,1979.91 867.03,1994.57 832,1995.5C 778.092,1991.6 745.092,1963.26 733,1910.5C 728.724,1867.59 744.224,1834.09 779.5,1810C 782.736,1808.21 786.07,1806.71 789.5,1805.5 Z" /></g>
<g xmlns="http://www.w3.org/2000/svg"><path style="opacity:1" fill="#FFFFFF" d="M 1570.5,1971.5 C 1546.35,1950.52 1522.35,1929.35 1498.5,1908C 1508.65,1883.71 1518.98,1859.54 1529.5,1835.5C 1601.37,1822.47 1673.87,1815.8 1747,1815.5C 1793.87,1815.24 1840.37,1819.07 1886.5,1827C 1910.64,1834.41 1931.31,1847.41 1948.5,1866C 1919.56,1863.54 1890.56,1861.54 1861.5,1860C 1839.17,1859.33 1816.83,1859.33 1794.5,1860C 1790.38,1860.14 1786.38,1860.81 1782.5,1862C 1778.35,1867.06 1779.01,1871.39 1784.5,1875C 1844.41,1873.05 1904.07,1876.05 1963.5,1884C 1975.15,1897.8 1983.82,1913.3 1989.5,1930.5C 1931.42,1918.72 1872.75,1913.22 1813.5,1914C 1812.58,1914.37 1811.75,1914.87 1811,1915.5C 1808.27,1920.85 1809.43,1925.02 1814.5,1928C 1874.11,1928.35 1933.11,1934.51 1991.5,1946.5C 1992.65,1946.82 1993.48,1947.48 1994,1948.5C 1994.24,1954.71 1992.41,1960.21 1988.5,1965C 1978.39,1969.69 1967.72,1972.02 1956.5,1972C 1902.25,1972.03 1848.42,1967.19 1795,1957.5C 1792.74,1957.44 1790.74,1958.11 1789,1959.5C 1787,1963.17 1787,1966.83 1789,1970.5C 1815.59,2000.36 1839.26,2032.36 1860,2066.5C 1865.6,2075.65 1869.44,2085.48 1871.5,2096C 1871.52,2099.5 1869.85,2101.33 1866.5,2101.5C 1858.52,2099.34 1851.19,2095.84 1844.5,2091C 1832.54,2082.05 1820.88,2072.71 1809.5,2063C 1775.75,2030.92 1743.08,1997.92 1711.5,1964C 1700.57,1962.3 1689.57,1961.3 1678.5,1961C 1642.05,1959.94 1606.05,1963.44 1570.5,1971.5 Z" /></g>
<g xmlns="http://www.w3.org/2000/svg"><path style="opacity:1" fill="#FFFFFF" d="M 973.5,1975.5 C 1028.17,1976.05 1082.83,1976.55 1137.5,1977C 1129.38,2014.78 1106.38,2037.45 1068.5,2045C 1023.43,2049.22 992.594,2030.39 976,1988.5C 975.004,1984.18 974.17,1979.85 973.5,1975.5 Z" /></g>
<g xmlns="http://www.w3.org/2000/svg"><path style="opacity:1" fill="#151515" d="M 522.5,2057.5 C 526.833,2061.17 530.833,2065.17 534.5,2069.5C 462.328,2087.52 394.328,2116.02 330.5,2155C 271.163,2190.62 216.996,2233.12 168,2282.5C 151.401,2300.92 141.734,2322.59 139,2347.5C 137.803,2353.13 137.47,2358.8 138,2364.5C 166.358,2332.12 198.858,2304.96 235.5,2283C 244.279,2281.11 247.779,2284.61 246,2293.5C 204.806,2319.01 168.806,2350.68 138,2388.5C 138.541,2408.54 143.874,2427.21 154,2444.5C 188.483,2404.01 227.317,2368.51 270.5,2338C 279.677,2335.51 283.511,2339.01 282,2348.5C 238.984,2378.84 200.317,2414.17 166,2454.5C 165.493,2456 165.993,2457.16 167.5,2458C 172.015,2460.5 176.849,2462 182,2462.5C 199.005,2458.94 214.838,2452.44 229.5,2443C 273.42,2412.1 313.42,2376.43 349.5,2336C 357.697,2331.89 362.031,2334.39 362.5,2343.5C 358.757,2371.39 357.257,2399.39 358,2427.5C 358.232,2435.9 360.065,2443.9 363.5,2451.5C 364.365,2452.58 365.365,2452.75 366.5,2452C 371.713,2447.07 375.546,2441.24 378,2434.5C 391.964,2393.02 400.964,2350.35 405,2306.5C 407.325,2301.16 410.825,2296.66 415.5,2293C 430.31,2281.42 445.976,2271.09 462.5,2262C 495.09,2244.97 529.09,2231.81 564.5,2222.5C 562.35,2228.79 559.684,2234.79 556.5,2240.5C 514.377,2252.81 475.044,2270.98 438.5,2295C 432.041,2299.79 425.874,2304.96 420,2310.5C 415.824,2348.04 408.824,2385.04 399,2421.5C 395.689,2433.11 391.023,2444.11 385,2454.5C 377.261,2467.48 366.761,2470.64 353.5,2464C 349.822,2459.81 347.322,2454.98 346,2449.5C 343.413,2436.8 342.247,2423.97 342.5,2411C 343.147,2395.49 343.647,2379.99 344,2364.5C 315.599,2394.91 284.766,2422.41 251.5,2447C 236.896,2457.47 221.229,2466.14 204.5,2473C 175.69,2482.84 153.524,2474.67 138,2448.5C 123.934,2418.31 118.934,2386.65 123,2353.5C 125.161,2326.67 133.828,2302.34 149,2280.5C 175.348,2251.81 203.848,2225.64 234.5,2202C 298.283,2152.76 367.616,2112.76 442.5,2082C 468.516,2071.72 495.182,2063.55 522.5,2057.5 Z" /></g>
<g xmlns="http://www.w3.org/2000/svg"><path style="opacity:1" fill="#FFFFFF" d="M 534.5,2069.5 C 557.103,2093.27 579.936,2116.94 603,2140.5C 603.167,2141.33 603.333,2142.17 603.5,2143C 590.883,2169.73 577.883,2196.23 564.5,2222.5C 529.09,2231.81 495.09,2244.97 462.5,2262C 445.976,2271.09 430.31,2281.42 415.5,2293C 410.825,2296.66 407.325,2301.16 405,2306.5C 400.964,2350.35 391.964,2393.02 378,2434.5C 375.546,2441.24 371.713,2447.07 366.5,2452C 365.365,2452.75 364.365,2452.58 363.5,2451.5C 360.065,2443.9 358.232,2435.9 358,2427.5C 357.257,2399.39 358.757,2371.39 362.5,2343.5C 362.031,2334.39 357.697,2331.89 349.5,2336C 313.42,2376.43 273.42,2412.1 229.5,2443C 214.838,2452.44 199.005,2458.94 182,2462.5C 176.849,2462 172.015,2460.5 167.5,2458C 165.993,2457.16 165.493,2456 166,2454.5C 200.317,2414.17 238.984,2378.84 282,2348.5C 283.511,2339.01 279.677,2335.51 270.5,2338C 227.317,2368.51 188.483,2404.01 154,2444.5C 143.874,2427.21 138.541,2408.54 138,2388.5C 168.806,2350.68 204.806,2319.01 246,2293.5C 247.779,2284.61 244.279,2281.11 235.5,2283C 198.858,2304.96 166.358,2332.12 138,2364.5C 137.47,2358.8 137.803,2353.13 139,2347.5C 141.734,2322.59 151.401,2300.92 168,2282.5C 216.996,2233.12 271.163,2190.62 330.5,2155C 394.328,2116.02 462.328,2087.52 534.5,2069.5 Z" /></g>
<g xmlns="http://www.w3.org/2000/svg"><path style="opacity:1" fill="#151515" d="M 1438.5,2288.5 C 1438.34,2290.53 1438.5,2292.53 1439,2294.5C 1481.77,2443.17 1524.6,2591.84 1567.5,2740.5C 1610.26,2743.75 1651.59,2752.92 1691.5,2768C 1703.84,2773.75 1714.67,2781.59 1724,2791.5C 1729.43,2798.56 1731.77,2806.56 1731,2815.5C 1730.22,2817.29 1729.05,2818.79 1727.5,2820C 1603.09,2821 1478.75,2820.66 1354.5,2819C 1319.44,2707.31 1284.1,2595.81 1248.5,2484.5C 1250.88,2474.31 1253.54,2464.31 1256.5,2454.5C 1286.43,2551.97 1316.77,2649.3 1347.5,2746.5C 1416,2747.5 1484.66,2747.83 1553.5,2747.5C 1553.74,2746.21 1553.4,2745.21 1552.5,2744.5C 1508.35,2593.73 1465.02,2442.73 1422.5,2291.5C 1427.71,2289.95 1433.05,2288.95 1438.5,2288.5 Z" /></g>
<g xmlns="http://www.w3.org/2000/svg"><path style="opacity:1" fill="#FFFFFF" d="M 1422.5,2291.5 C 1465.02,2442.73 1508.35,2593.73 1552.5,2744.5C 1484.51,2746.5 1416.17,2747.16 1347.5,2746.5C 1316.77,2649.3 1286.43,2551.97 1256.5,2454.5C 1268.17,2406.5 1279.83,2358.5 1291.5,2310.5C 1335.09,2303.71 1378.76,2297.37 1422.5,2291.5 Z" /></g>
<g xmlns="http://www.w3.org/2000/svg"><path style="opacity:1" fill="#FFFFFF" d="M 937.5,2418.5 C 915.289,2543.8 893.289,2669.13 871.5,2794.5C 804.167,2794.5 736.833,2794.5 669.5,2794.5C 685.74,2682.15 702.073,2569.82 718.5,2457.5C 785.506,2437.76 852.673,2418.42 920,2399.5C 926.718,2404.87 932.551,2411.2 937.5,2418.5 Z" /></g>
<g xmlns="http://www.w3.org/2000/svg"><path style="opacity:1" fill="#151515" d="M 937.5,2418.5 C 942.584,2423.25 946.917,2428.58 950.5,2434.5C 930.197,2552.49 909.197,2670.32 887.5,2788C 915.835,2793 942.835,2802 968.5,2815C 981.254,2821.11 990.421,2830.61 996,2843.5C 997.01,2848.56 996.51,2853.39 994.5,2858C 993.5,2858.33 992.5,2858.67 991.5,2859C 877.833,2859.67 764.167,2859.67 650.5,2859C 648.998,2858.42 647.665,2857.58 646.5,2856.5C 645.415,2853.23 645.248,2849.89 646,2846.5C 664.829,2718.53 683.329,2590.53 701.5,2462.5C 707.221,2460.96 712.888,2459.29 718.5,2457.5C 702.073,2569.82 685.74,2682.15 669.5,2794.5C 736.833,2794.5 804.167,2794.5 871.5,2794.5C 893.289,2669.13 915.289,2543.8 937.5,2418.5 Z" /></g>
<g xmlns="http://www.w3.org/2000/svg"><path style="opacity:1" fill="#2B2B2B" d="M 1552.5,2744.5 C 1553.4,2745.21 1553.74,2746.21 1553.5,2747.5C 1484.66,2747.83 1416,2747.5 1347.5,2746.5C 1416.17,2747.16 1484.51,2746.5 1552.5,2744.5 Z" /></g>
</svg>
