<?xml version="1.0" encoding="UTF-8"?>
<svg xmlns="http://www.w3.org/2000/svg" version="1.1" xmlns:xlink="http://www.w3.org/1999/xlink" width="3405px" height="2687px" viewBox="1851 125 3405 2687" style="shape-rendering:geometricPrecision; text-rendering:geometricPrecision; image-rendering:optimizeQuality; fill-rule:evenodd; clip-rule:evenodd">
<g xmlns="http://www.w3.org/2000/svg"><path style="opacity:1" fill="#151515" d="M 5086.5,802.5 C 5082.38,795.602 5079.38,788.269 5077.5,780.5C 5046.87,772.769 5020.7,757.436 4999,734.5C 4978.07,706.253 4973.23,675.419 4984.5,642C 4953.65,613.469 4931.48,579.302 4918,539.5C 4910.75,515.464 4910.75,491.464 4918,467.5C 4922.97,451.531 4933.14,440.365 4948.5,434C 4945.55,419.693 4944.22,405.193 4944.5,390.5C 4945.18,383.159 4946.02,375.826 4947,368.5C 4947.37,367.584 4947.87,366.75 4948.5,366C 4907.64,343.896 4865.64,324.563 4822.5,308C 4593.77,219.915 4357.44,191.582 4113.5,223C 4032.99,232.399 3954.32,249.733 3877.5,275C 3813.63,297.513 3754.13,328.013 3699,366.5C 3699.76,375.478 3700.59,384.478 3701.5,393.5C 3701.23,406.958 3699.9,420.291 3697.5,433.5C 3716.16,443.069 3727.33,458.402 3731,479.5C 3735.89,515.624 3728.89,549.29 3710,580.5C 3697.23,602.676 3681.56,622.676 3663,640.5C 3676.41,693.293 3659.91,733.793 3613.5,762C 3599.73,771.087 3584.73,776.921 3568.5,779.5C 3567.16,786.194 3564.82,792.527 3561.5,798.5C 3549.33,813.762 3533.33,822.596 3513.5,825C 3490.57,830.093 3471.07,824.26 3455,807.5C 3443.72,790.508 3439.72,771.841 3443,751.5C 3444.19,744.754 3445.69,738.088 3447.5,731.5C 3435.23,719.293 3427.39,704.626 3424,687.5C 3418.88,653.541 3420.54,619.874 3429,586.5C 3439.25,540.8 3455.58,497.467 3478,456.5C 3489.43,435.064 3503.93,415.898 3521.5,399C 3536.28,386.687 3553.12,379.187 3572,376.5C 3573.08,357.749 3581.91,343.916 3598.5,335C 3617.66,325.288 3637.66,323.121 3658.5,328.5C 3686.98,303.547 3718.31,282.713 3752.5,266C 3797.66,244.757 3844.33,227.423 3892.5,214C 4045.42,173.86 4201.09,155.86 4359.5,160C 4538.64,165.611 4710.98,201.611 4876.5,268C 4915.9,284.701 4953.9,304.035 4990.5,326C 5014.54,322.512 5036.54,327.512 5056.5,341C 5067.98,350.458 5073.65,362.625 5073.5,377.5C 5091.15,378.659 5106.81,384.826 5120.5,396C 5138.69,411.852 5153.52,430.352 5165,451.5C 5200.19,514.252 5220.36,581.586 5225.5,653.5C 5225.97,676.272 5220.81,697.605 5210,717.5C 5206.28,722.442 5202.45,727.275 5198.5,732C 5204.86,752.126 5205.03,772.292 5199,792.5C 5189.2,815.082 5171.87,826.415 5147,826.5C 5123.55,826.195 5103.38,818.195 5086.5,802.5 Z" /></g>
<g xmlns="http://www.w3.org/2000/svg"><path style="opacity:1" fill="#FFFFFF" d="M 4286.5,174.5 C 4475.18,172.073 4657.85,203.24 4834.5,268C 4882.69,285.928 4929.03,307.928 4973.5,334C 4965.83,338.327 4959.17,343.827 4953.5,350.5C 4740.02,241.853 4513.36,190.687 4273.5,197C 4161.79,198.441 4051.79,212.441 3943.5,239C 3871.15,257.924 3802.48,285.924 3737.5,323C 3722.08,332.46 3706.91,342.293 3692,352.5C 3687.36,345.698 3681.86,339.698 3675.5,334.5C 3695.66,317.518 3717.32,302.685 3740.5,290C 3788.18,265.22 3837.85,245.553 3889.5,231C 3986.84,204.833 4085.84,187.833 4186.5,180C 4219.96,177.638 4253.3,175.804 4286.5,174.5 Z" /></g>
<g xmlns="http://www.w3.org/2000/svg"><path style="opacity:1" fill="#FFFFFF" d="M 4944.5,390.5 C 4901.86,366.92 4857.86,346.753 4812.5,330C 4712.39,294.309 4609.39,270.976 4503.5,260C 4328.95,240.871 4155.95,249.871 3984.5,287C 3908.75,303.804 3835.75,328.138 3765.5,360C 3743.7,370.4 3722.37,381.566 3701.5,393.5C 3700.59,384.478 3699.76,375.478 3699,366.5C 3754.13,328.013 3813.63,297.513 3877.5,275C 3954.32,249.733 4032.99,232.399 4113.5,223C 4357.44,191.582 4593.77,219.915 4822.5,308C 4865.64,324.563 4907.64,343.896 4948.5,366C 4947.87,366.75 4947.37,367.584 4947,368.5C 4946.02,375.826 4945.18,383.159 4944.5,390.5 Z" /></g>
<g xmlns="http://www.w3.org/2000/svg"><path style="opacity:1" fill="#FFA7DC" d="M 4944.5,390.5 C 4944.22,405.193 4945.55,419.693 4948.5,434C 4933.14,440.365 4922.97,451.531 4918,467.5C 4910.75,491.464 4910.75,515.464 4918,539.5C 4931.48,579.302 4953.65,613.469 4984.5,642C 4973.23,675.419 4978.07,706.253 4999,734.5C 5020.7,757.436 5046.87,772.769 5077.5,780.5C 5079.38,788.269 5082.38,795.602 5086.5,802.5C 5084.86,804.475 5083.2,806.475 5081.5,808.5C 5077.5,813.167 5073.5,817.833 5069.5,822.5C 5026.79,866.536 4978.13,902.536 4923.5,930.5C 4919.12,933.358 4914.45,935.692 4909.5,937.5C 4873.27,956.023 4835.93,972.023 4797.5,985.5C 4797.17,985.5 4796.83,985.5 4796.5,985.5C 4791.44,986.965 4786.44,988.632 4781.5,990.5C 4719.73,1010.86 4656.73,1026.53 4592.5,1037.5C 4587.52,1038.33 4582.52,1038.99 4577.5,1039.5C 4413.27,1065.42 4248.93,1066.09 4084.5,1041.5C 4084.17,1041.5 4083.83,1041.5 4083.5,1041.5C 4078.53,1040.69 4073.53,1040.02 4068.5,1039.5C 4004.41,1028.88 3941.41,1013.88 3879.5,994.5C 3874.58,992.637 3869.58,990.971 3864.5,989.5C 3822.1,974.973 3780.76,957.639 3740.5,937.5C 3735.83,935.167 3731.17,932.833 3726.5,930.5C 3672.13,902.306 3623.47,866.306 3580.5,822.5C 3576.85,817.514 3572.85,812.847 3568.5,808.5C 3566.17,805.167 3563.83,801.833 3561.5,798.5C 3564.82,792.527 3567.16,786.194 3568.5,779.5C 3584.73,776.921 3599.73,771.087 3613.5,762C 3659.91,733.793 3676.41,693.293 3663,640.5C 3681.56,622.676 3697.23,602.676 3710,580.5C 3728.89,549.29 3735.89,515.624 3731,479.5C 3727.33,458.402 3716.16,443.069 3697.5,433.5C 3699.9,420.291 3701.23,406.958 3701.5,393.5C 3722.37,381.566 3743.7,370.4 3765.5,360C 3835.75,328.138 3908.75,303.804 3984.5,287C 4155.95,249.871 4328.95,240.871 4503.5,260C 4609.39,270.976 4712.39,294.309 4812.5,330C 4857.86,346.753 4901.86,366.92 4944.5,390.5 Z" /></g>
<g xmlns="http://www.w3.org/2000/svg"><path style="opacity:1" fill="#FFFFFF" d="M 3685.5,403.5 C 3667.47,414.513 3650.14,426.513 3633.5,439.5C 3630.82,425.639 3625.65,412.639 3618,400.5C 3610.27,390.112 3600.27,382.778 3588,378.5C 3587.11,372.833 3588.11,367.499 3591,362.5C 3602.88,347.815 3618.38,340.481 3637.5,340.5C 3652.66,340.485 3665.5,345.819 3676,356.5C 3680.96,363.366 3683.96,371.033 3685,379.5C 3685.5,387.493 3685.67,395.493 3685.5,403.5 Z" /></g>
<g xmlns="http://www.w3.org/2000/svg"><path style="opacity:1" fill="#FFFFFF" d="M 5013.5,436.5 C 4996.43,423.94 4978.93,411.94 4961,400.5C 4960.5,396.179 4960.33,391.846 4960.5,387.5C 4960.74,360.761 4974.07,345.261 5000.5,341C 5017.25,339.697 5032.58,343.697 5046.5,353C 5054.58,359.648 5058.41,368.148 5058,378.5C 5037.57,386.266 5023.9,400.599 5017,421.5C 5015.64,426.466 5014.47,431.466 5013.5,436.5 Z" /></g>
<g xmlns="http://www.w3.org/2000/svg"><path style="opacity:1" fill="#FFFFFF" d="M 3619.5,451.5 C 3578.36,484.455 3546.86,524.789 3525,572.5C 3507.63,615.368 3504.13,659.368 3514.5,704.5C 3505.3,714.941 3493.96,722.108 3480.5,726C 3471.75,727.228 3464.08,724.895 3457.5,719C 3446.62,708.05 3440.12,694.883 3438,679.5C 3434.63,652.305 3435.97,625.305 3442,598.5C 3454.55,539.47 3477.22,484.804 3510,434.5C 3521.45,418.377 3535.95,405.877 3553.5,397C 3580.61,387.146 3600.11,395.312 3612,421.5C 3616.07,431.109 3618.57,441.109 3619.5,451.5 Z" /></g>
<g xmlns="http://www.w3.org/2000/svg"><path style="opacity:1" fill="#FFFFFF" d="M 5135.5,708.5 C 5149.5,647.114 5140,589.78 5107,536.5C 5085.21,502.548 5058.38,473.214 5026.5,448.5C 5028.32,430.027 5035.66,414.194 5048.5,401C 5063.14,390.837 5078.47,389.837 5094.5,398C 5110.77,406.596 5124.27,418.43 5135,433.5C 5179.26,499.787 5204.1,572.787 5209.5,652.5C 5210.91,673.318 5206.41,692.651 5196,710.5C 5182.02,728.852 5165.52,731.352 5146.5,718C 5142.64,714.968 5138.97,711.802 5135.5,708.5 Z" /></g>
<g xmlns="http://www.w3.org/2000/svg"><path style="opacity:1" fill="#FFA7DC" d="M 4960.5,387.5 C 4960.33,391.846 4960.5,396.179 4961,400.5C 4978.93,411.94 4996.43,423.94 5013.5,436.5C 5008.28,470.301 5010.45,503.634 5020,536.5C 5038.95,594.745 5066.62,648.412 5103,697.5C 5111.7,707.365 5120.87,716.699 5130.5,725.5C 5129.43,727.964 5128.1,730.297 5126.5,732.5C 5118.13,722.159 5108.13,720.326 5096.5,727C 5085.44,736.29 5078.94,748.123 5077,762.5C 5076.28,763.059 5075.44,763.392 5074.5,763.5C 5049.79,756.228 5028.62,743.228 5011,724.5C 4994.19,702.777 4989.86,678.777 4998,652.5C 5006.92,659.714 5017.09,663.714 5028.5,664.5C 5038.92,664.028 5045.42,658.695 5048,648.5C 5049.38,635.936 5048.38,623.603 5045,611.5C 5038.72,597.777 5028.56,593.61 5014.5,599C 5004.43,605.27 4996.77,613.77 4991.5,624.5C 4991,625.521 4990.33,625.688 4989.5,625C 4961.71,597.943 4942.21,565.776 4931,528.5C 4925.29,505.275 4927.63,482.942 4938,461.5C 4941.44,456.061 4946.11,452.061 4952,449.5C 4956.26,460.519 4962.43,470.353 4970.5,479C 4983.4,486.24 4992.56,483.074 4998,469.5C 5000.47,453.93 4994.63,442.763 4980.5,436C 4974.97,434.127 4969.3,432.961 4963.5,432.5C 4962.15,424.877 4960.99,417.21 4960,409.5C 4959.18,401.988 4959.34,394.655 4960.5,387.5 Z" /></g>
<g xmlns="http://www.w3.org/2000/svg"><path style="opacity:1" fill="#FFA7DC" d="M 3685.5,403.5 C 3685.63,413.292 3684.63,422.959 3682.5,432.5C 3670.93,432.867 3661.1,437.2 3653,445.5C 3645.27,457.387 3645.77,468.887 3654.5,480C 3662.32,483.849 3669.65,483.182 3676.5,478C 3684.1,469.638 3689.76,460.138 3693.5,449.5C 3705.31,456.109 3712.48,466.109 3715,479.5C 3719.82,502.453 3717.82,524.786 3709,546.5C 3697.05,576.437 3679.55,602.604 3656.5,625C 3655.67,625.688 3655,625.521 3654.5,624.5C 3648.64,612.808 3639.97,603.975 3628.5,598C 3617.56,594.648 3609.06,597.814 3603,607.5C 3597.2,620.983 3595.53,634.983 3598,649.5C 3602.41,661.459 3610.91,666.292 3623.5,664C 3632.6,661.781 3640.94,657.948 3648.5,652.5C 3657.44,692.845 3644.44,724.012 3609.5,746C 3597.15,755.058 3583.48,760.891 3568.5,763.5C 3566.92,749.504 3560.92,737.671 3550.5,728C 3540.96,720.953 3531.62,721.119 3522.5,728.5C 3520.75,726.967 3519.75,724.967 3519.5,722.5C 3547.89,693.601 3571.05,660.935 3589,624.5C 3607.9,588.127 3622.23,550.127 3632,510.5C 3635.85,486.879 3636.35,463.213 3633.5,439.5C 3650.14,426.513 3667.47,414.513 3685.5,403.5 Z" /></g>
<g xmlns="http://www.w3.org/2000/svg"><path style="opacity:1" fill="#FFA7DC" d="M 4968.5,449.5 C 4972.58,449.772 4976.42,451.438 4980,454.5C 4983.04,458.095 4983.87,462.095 4982.5,466.5C 4980.1,466.607 4978.26,465.607 4977,463.5C 4973.89,458.936 4971.06,454.269 4968.5,449.5 Z" /></g>
<g xmlns="http://www.w3.org/2000/svg"><path style="opacity:1" fill="#FFA7DC" d="M 3619.5,451.5 C 3621.18,478.644 3618.35,505.311 3611,531.5C 3591.93,591.652 3562.93,646.319 3524,695.5C 3520.96,698.704 3517.8,701.704 3514.5,704.5C 3504.13,659.368 3507.63,615.368 3525,572.5C 3546.86,524.789 3578.36,484.455 3619.5,451.5 Z" /></g>
<g xmlns="http://www.w3.org/2000/svg"><path style="opacity:1" fill="#FFA7DC" d="M 3672.5,449.5 C 3673.87,449.343 3675.21,449.51 3676.5,450C 3674.06,455.048 3671.23,459.881 3668,464.5C 3666.87,466.211 3665.37,466.711 3663.5,466C 3662.4,463.599 3662.23,461.099 3663,458.5C 3665.41,454.592 3668.57,451.592 3672.5,449.5 Z" /></g>
<g xmlns="http://www.w3.org/2000/svg"><path style="opacity:1" fill="#FFA7DC" d="M 5026.5,448.5 C 5058.38,473.214 5085.21,502.548 5107,536.5C 5140,589.78 5149.5,647.114 5135.5,708.5C 5118.93,693.098 5104.76,675.765 5093,656.5C 5063.68,610.209 5042.35,560.543 5029,507.5C 5025.56,487.939 5024.72,468.272 5026.5,448.5 Z" /></g>
<g xmlns="http://www.w3.org/2000/svg"><path style="opacity:1" fill="#FFFFFF" d="M 4095.5,639.5 C 4052.33,604.583 4006,600.083 3956.5,626C 3920.62,648.901 3901.62,681.734 3899.5,724.5C 3871.97,700.934 3858.3,670.934 3858.5,634.5C 3860.43,582.804 3884.76,545.971 3931.5,524C 3979.01,506.836 4021.67,514.836 4059.5,548C 4084.98,573.135 4096.98,603.635 4095.5,639.5 Z" /></g>
<g xmlns="http://www.w3.org/2000/svg"><path style="opacity:1" fill="#FFFFFF" d="M 4791.5,622.5 C 4757.4,597.98 4720.07,591.813 4679.5,604C 4636.03,621.477 4610.19,653.31 4602,699.5C 4601.5,709.494 4601.33,719.494 4601.5,729.5C 4566.67,701.22 4551.17,664.553 4555,619.5C 4563.31,569.522 4591.47,536.355 4639.5,520C 4696.36,507.204 4741.52,524.37 4775,571.5C 4781.58,583.265 4786.58,595.598 4790,608.5C 4790.67,613.156 4791.17,617.823 4791.5,622.5 Z" /></g>
<g xmlns="http://www.w3.org/2000/svg"><path style="opacity:1" fill="#151515" d="M 4791.5,622.5 C 4794.65,676.377 4772.65,716.211 4725.5,742C 4681.75,760.445 4640.42,756.279 4601.5,729.5C 4601.33,719.494 4601.5,709.494 4602,699.5C 4610.19,653.31 4636.03,621.477 4679.5,604C 4720.07,591.813 4757.4,597.98 4791.5,622.5 Z" /></g>
<g xmlns="http://www.w3.org/2000/svg"><path style="opacity:1" fill="#151515" d="M 4095.5,639.5 C 4092.23,686.243 4069.9,720.41 4028.5,742C 3985.25,760.108 3944.25,756.108 3905.5,730C 3903.6,727.932 3901.6,726.099 3899.5,724.5C 3901.62,681.734 3920.62,648.901 3956.5,626C 4006,600.083 4052.33,604.583 4095.5,639.5 Z" /></g>
<g xmlns="http://www.w3.org/2000/svg"><path style="opacity:1" fill="#FFA7DC" d="M 3619.5,611.5 C 3622.02,611.755 3624.35,612.589 3626.5,614C 3633.55,620.111 3638.88,627.444 3642.5,636C 3635.9,642.807 3627.9,647.307 3618.5,649.5C 3616.63,649.61 3615.13,648.944 3614,647.5C 3610.28,634.627 3612.11,622.627 3619.5,611.5 Z" /></g>
<g xmlns="http://www.w3.org/2000/svg"><path style="opacity:1" fill="#FFA7DC" d="M 5022.5,611.5 C 5025.32,611.081 5027.49,612.081 5029,614.5C 5033.29,624.872 5034.29,635.538 5032,646.5C 5030.84,648.665 5029.01,649.665 5026.5,649.5C 5017.59,646.942 5009.59,642.608 5002.5,636.5C 5006.97,626.367 5013.64,618.034 5022.5,611.5 Z" /></g>
<g xmlns="http://www.w3.org/2000/svg"><path style="opacity:1" fill="#151515" d="M 4426.5,626.5 C 4431.03,626.177 4433.87,628.177 4435,632.5C 4435.86,668.947 4424.03,700.447 4399.5,727C 4369.33,751.79 4334.99,759.79 4296.5,751C 4267.92,741.782 4246.42,723.948 4232,697.5C 4223.33,682.786 4217.49,666.952 4214.5,650C 4216.24,643.907 4220.24,641.907 4226.5,644C 4227.33,644.833 4228.17,645.667 4229,646.5C 4234.65,674.315 4247.49,698.148 4267.5,718C 4293.02,738.636 4321.68,744.303 4353.5,735C 4379.89,726.605 4398.73,709.771 4410,684.5C 4416.85,667.232 4420.52,649.232 4421,630.5C 4422.5,628.531 4424.33,627.198 4426.5,626.5 Z" /></g>
<g xmlns="http://www.w3.org/2000/svg"><path style="opacity:1" fill="#FFFFFF" d="M 3519.5,722.5 C 3519.75,724.967 3520.75,726.967 3522.5,728.5C 3511.02,744.322 3512.69,758.822 3527.5,772C 3533.84,776.502 3540.84,779.336 3548.5,780.5C 3549.17,781.833 3549.83,783.167 3550.5,784.5C 3545.03,796.13 3536.03,803.63 3523.5,807C 3477.07,819.236 3455.24,801.402 3458,753.5C 3458.75,749.104 3459.75,744.77 3461,740.5C 3476.34,743.664 3490.84,741.164 3504.5,733C 3509.53,729.49 3514.53,725.99 3519.5,722.5 Z" /></g>
<g xmlns="http://www.w3.org/2000/svg"><path style="opacity:1" fill="#FFFFFF" d="M 5130.5,725.5 C 5141.78,734.974 5154.78,740.308 5169.5,741.5C 5174.11,741.517 5178.61,740.85 5183,739.5C 5183.5,739.833 5184,740.167 5184.5,740.5C 5190.75,759.022 5189.58,777.022 5181,794.5C 5172.55,805.727 5161.21,811.394 5147,811.5C 5130.95,811.04 5116.45,806.206 5103.5,797C 5100.62,794.721 5098.62,791.888 5097.5,788.5C 5098.9,785.366 5100.57,782.366 5102.5,779.5C 5116.24,776.267 5125.4,767.934 5130,754.5C 5131.42,746.685 5130.26,739.351 5126.5,732.5C 5128.1,730.297 5129.43,727.964 5130.5,725.5 Z" /></g>
<g xmlns="http://www.w3.org/2000/svg"><path style="opacity:1" fill="#FFA7DC" d="M 3534.5,738.5 C 3539.06,738.55 3542.56,740.55 3545,744.5C 3549.48,750.453 3551.98,757.12 3552.5,764.5C 3540.55,764.551 3533.22,758.885 3530.5,747.5C 3530.49,743.861 3531.82,740.861 3534.5,738.5 Z" /></g>
<g xmlns="http://www.w3.org/2000/svg"><path style="opacity:1" fill="#FFA7DC" d="M 5107.5,738.5 C 5111.17,738.327 5113.67,739.993 5115,743.5C 5116.2,753.319 5112.04,759.819 5102.5,763C 5099.27,764.199 5095.94,764.699 5092.5,764.5C 5093.92,753.65 5098.92,744.983 5107.5,738.5 Z" /></g>
<g xmlns="http://www.w3.org/2000/svg"><path style="opacity:1" fill="#FFA7DC" d="M 3548.5,780.5 C 3552.91,780.323 3553.58,781.657 3550.5,784.5C 3549.83,783.167 3549.17,781.833 3548.5,780.5 Z" /></g>
<g xmlns="http://www.w3.org/2000/svg"><path style="opacity:1" fill="#FFA7DC" d="M 5102.5,779.5 C 5100.57,782.366 5098.9,785.366 5097.5,788.5C 5095.36,786.505 5094.03,784.005 5093.5,781C 5096.39,779.851 5099.39,779.351 5102.5,779.5 Z" /></g>
<g xmlns="http://www.w3.org/2000/svg"><path style="opacity:1" fill="#151515" d="M 3568.5,808.5 C 3572.85,812.847 3576.85,817.514 3580.5,822.5C 3561.62,877.599 3544.46,933.266 3529,989.5C 3524.7,1006.03 3521.03,1022.7 3518,1039.5C 3515.38,1051.11 3516.05,1062.44 3520,1073.5C 3521.61,1077.04 3523.94,1080.04 3527,1082.5C 3534.75,1053.1 3542.75,1023.77 3551,994.5C 3555.33,990.5 3559.67,990.5 3564,994.5C 3564.67,997.833 3564.67,1001.17 3564,1004.5C 3556.22,1034.47 3548.05,1064.3 3539.5,1094C 3546.35,1098.93 3553.68,1103.09 3561.5,1106.5C 3570.82,1072.22 3579.99,1037.89 3589,1003.5C 3589.5,1001.67 3590.67,1000.5 3592.5,1000C 3601.33,998.167 3604.83,1001.67 3603,1010.5C 3594.34,1043.46 3585.84,1076.46 3577.5,1109.5C 3577.86,1112.36 3579.53,1113.86 3582.5,1114C 3591.05,1116.21 3599.72,1117.71 3608.5,1118.5C 3616.83,1085.5 3625.33,1052.5 3634,1019.5C 3637.68,1013.73 3642.18,1013.07 3647.5,1017.5C 3648.57,1020.44 3648.74,1023.44 3648,1026.5C 3639.54,1057.02 3631.7,1087.69 3624.5,1118.5C 3630.72,1117.89 3636.72,1116.39 3642.5,1114C 3646.24,1112.26 3649.41,1109.76 3652,1106.5C 3666.69,1077.75 3677.03,1047.42 3683,1015.5C 3687.67,1010.17 3692.33,1010.17 3697,1015.5C 3697.14,1036.32 3701.14,1056.32 3709,1075.5C 3712.04,1080.71 3716.04,1081.71 3721,1078.5C 3722.53,1074.91 3723.86,1071.24 3725,1067.5C 3725.67,1059.17 3725.67,1050.83 3725,1042.5C 3722.38,1022.25 3718.55,1002.25 3713.5,982.5C 3717.33,965.02 3721.66,947.687 3726.5,930.5C 3731.17,932.833 3735.83,935.167 3740.5,937.5C 3736.66,952.524 3732.66,967.524 3728.5,982.5C 3737.33,1010.84 3741.17,1039.84 3740,1069.5C 3737.33,1091.89 3725.5,1099.72 3704.5,1093C 3695.74,1084.66 3690.24,1074.49 3688,1062.5C 3681.65,1081.21 3673.65,1099.21 3664,1116.5C 3654.92,1126.12 3643.76,1131.62 3630.5,1133C 3592.75,1135.66 3558.41,1126.33 3527.5,1105C 3506.77,1090.03 3498.27,1069.86 3502,1044.5C 3507.94,1011.06 3515.61,978.057 3525,945.5C 3538.41,899.445 3552.91,853.778 3568.5,808.5 Z" /></g>
<g xmlns="http://www.w3.org/2000/svg"><path style="opacity:1" fill="#151515" d="M 5081.5,808.5 C 5104.28,872.905 5124.12,938.239 5141,1004.5C 5145.13,1021.8 5147.96,1039.3 5149.5,1057C 5149.45,1069.49 5145.62,1080.65 5138,1090.5C 5120.48,1109.02 5099.31,1121.52 5074.5,1128C 5051.65,1134.4 5028.65,1135.07 5005.5,1130C 4999.07,1127.04 4993.23,1123.2 4988,1118.5C 4977.5,1100.84 4969.17,1082.17 4963,1062.5C 4960.4,1073.19 4955.57,1082.69 4948.5,1091C 4936.44,1098.69 4925.61,1097.19 4916,1086.5C 4912.44,1079.61 4910.44,1072.28 4910,1064.5C 4910.03,1036.63 4913.87,1009.29 4921.5,982.5C 4917.91,967.384 4913.91,952.384 4909.5,937.5C 4914.45,935.692 4919.12,933.358 4923.5,930.5C 4928.74,947.655 4933.41,964.988 4937.5,982.5C 4930.66,1006.56 4926.32,1031.06 4924.5,1056C 4924.65,1060.87 4925.15,1065.7 4926,1070.5C 4931.63,1083.66 4937.63,1083.66 4944,1070.5C 4949.76,1052.25 4953.26,1033.58 4954.5,1014.5C 4957.79,1011.26 4961.46,1010.76 4965.5,1013C 4966.89,1014.17 4967.73,1015.67 4968,1017.5C 4973.25,1048.6 4983.25,1077.93 4998,1105.5C 5005.61,1114.3 5015.11,1118.3 5026.5,1117.5C 5018.01,1085.88 5009.68,1054.22 5001.5,1022.5C 5002.35,1015.81 5006.02,1013.31 5012.5,1015C 5014.33,1015.5 5015.5,1016.67 5016,1018.5C 5024.82,1051.46 5033.49,1084.46 5042,1117.5C 5052.34,1117.64 5062.51,1115.97 5072.5,1112.5C 5072.83,1111.83 5073.17,1111.17 5073.5,1110.5C 5064.42,1075.69 5055.42,1040.85 5046.5,1006C 5048.24,999.907 5052.24,997.907 5058.5,1000C 5060.05,1001.21 5061.22,1002.71 5062,1004.5C 5070.68,1038.22 5079.51,1071.88 5088.5,1105.5C 5088.83,1105.83 5089.17,1106.17 5089.5,1106.5C 5097.32,1103.32 5104.32,1098.99 5110.5,1093.5C 5102.51,1064.55 5094.68,1035.55 5087,1006.5C 5082.71,994.492 5086.54,989.992 5098.5,993C 5099.13,993.75 5099.63,994.584 5100,995.5C 5107.85,1024.56 5115.85,1053.56 5124,1082.5C 5134,1070.87 5137,1057.53 5133,1042.5C 5126.88,1009.37 5118.88,976.701 5109,944.5C 5097.12,903.353 5083.95,862.686 5069.5,822.5C 5073.5,817.833 5077.5,813.167 5081.5,808.5 Z" /></g>
<g xmlns="http://www.w3.org/2000/svg"><path style="opacity:1" fill="#FFFFFF" d="M 3580.5,822.5 C 3623.47,866.306 3672.13,902.306 3726.5,930.5C 3721.66,947.687 3717.33,965.02 3713.5,982.5C 3718.55,1002.25 3722.38,1022.25 3725,1042.5C 3725.67,1050.83 3725.67,1059.17 3725,1067.5C 3723.86,1071.24 3722.53,1074.91 3721,1078.5C 3716.04,1081.71 3712.04,1080.71 3709,1075.5C 3701.14,1056.32 3697.14,1036.32 3697,1015.5C 3692.33,1010.17 3687.67,1010.17 3683,1015.5C 3677.03,1047.42 3666.69,1077.75 3652,1106.5C 3649.41,1109.76 3646.24,1112.26 3642.5,1114C 3636.72,1116.39 3630.72,1117.89 3624.5,1118.5C 3631.7,1087.69 3639.54,1057.02 3648,1026.5C 3648.74,1023.44 3648.57,1020.44 3647.5,1017.5C 3642.18,1013.07 3637.68,1013.73 3634,1019.5C 3625.33,1052.5 3616.83,1085.5 3608.5,1118.5C 3599.72,1117.71 3591.05,1116.21 3582.5,1114C 3579.53,1113.86 3577.86,1112.36 3577.5,1109.5C 3585.84,1076.46 3594.34,1043.46 3603,1010.5C 3604.83,1001.67 3601.33,998.167 3592.5,1000C 3590.67,1000.5 3589.5,1001.67 3589,1003.5C 3579.99,1037.89 3570.82,1072.22 3561.5,1106.5C 3553.68,1103.09 3546.35,1098.93 3539.5,1094C 3548.05,1064.3 3556.22,1034.47 3564,1004.5C 3564.67,1001.17 3564.67,997.833 3564,994.5C 3559.67,990.5 3555.33,990.5 3551,994.5C 3542.75,1023.77 3534.75,1053.1 3527,1082.5C 3523.94,1080.04 3521.61,1077.04 3520,1073.5C 3516.05,1062.44 3515.38,1051.11 3518,1039.5C 3521.03,1022.7 3524.7,1006.03 3529,989.5C 3544.46,933.266 3561.62,877.599 3580.5,822.5 Z" /></g>
<g xmlns="http://www.w3.org/2000/svg"><path style="opacity:1" fill="#FFFFFF" d="M 5069.5,822.5 C 5083.95,862.686 5097.12,903.353 5109,944.5C 5118.88,976.701 5126.88,1009.37 5133,1042.5C 5137,1057.53 5134,1070.87 5124,1082.5C 5115.85,1053.56 5107.85,1024.56 5100,995.5C 5099.63,994.584 5099.13,993.75 5098.5,993C 5086.54,989.992 5082.71,994.492 5087,1006.5C 5094.68,1035.55 5102.51,1064.55 5110.5,1093.5C 5104.32,1098.99 5097.32,1103.32 5089.5,1106.5C 5089.17,1106.17 5088.83,1105.83 5088.5,1105.5C 5079.51,1071.88 5070.68,1038.22 5062,1004.5C 5061.22,1002.71 5060.05,1001.21 5058.5,1000C 5052.24,997.907 5048.24,999.907 5046.5,1006C 5055.42,1040.85 5064.42,1075.69 5073.5,1110.5C 5073.17,1111.17 5072.83,1111.83 5072.5,1112.5C 5062.51,1115.97 5052.34,1117.64 5042,1117.5C 5033.49,1084.46 5024.82,1051.46 5016,1018.5C 5015.5,1016.67 5014.33,1015.5 5012.5,1015C 5006.02,1013.31 5002.35,1015.81 5001.5,1022.5C 5009.68,1054.22 5018.01,1085.88 5026.5,1117.5C 5015.11,1118.3 5005.61,1114.3 4998,1105.5C 4983.25,1077.93 4973.25,1048.6 4968,1017.5C 4967.73,1015.67 4966.89,1014.17 4965.5,1013C 4961.46,1010.76 4957.79,1011.26 4954.5,1014.5C 4953.26,1033.58 4949.76,1052.25 4944,1070.5C 4937.63,1083.66 4931.63,1083.66 4926,1070.5C 4925.15,1065.7 4924.65,1060.87 4924.5,1056C 4926.32,1031.06 4930.66,1006.56 4937.5,982.5C 4933.41,964.988 4928.74,947.655 4923.5,930.5C 4978.13,902.536 5026.79,866.536 5069.5,822.5 Z" /></g>
<g xmlns="http://www.w3.org/2000/svg"><path style="opacity:1" fill="#151515" d="M 4796.5,985.5 C 4796.5,1054.5 4796.5,1123.5 4796.5,1192.5C 4797.5,1192.5 4798.5,1192.5 4799.5,1192.5C 4834.13,1196.63 4854.13,1215.8 4859.5,1250C 4859.1,1252.89 4857.76,1255.22 4855.5,1257C 4763.79,1257.83 4672.13,1257.66 4580.5,1256.5C 4579.42,1255.33 4578.58,1254 4578,1252.5C 4577.5,1181.5 4577.33,1110.5 4577.5,1039.5C 4582.52,1038.99 4587.52,1038.33 4592.5,1037.5C 4592.5,1105.83 4592.5,1174.17 4592.5,1242.5C 4622.17,1242.5 4651.83,1242.5 4681.5,1242.5C 4679.64,1228.46 4671.97,1218.96 4658.5,1214C 4653.31,1212.07 4647.97,1210.73 4642.5,1210C 4637.93,1207.46 4636.43,1203.63 4638,1198.5C 4640.04,1196.03 4642.71,1195.03 4646,1195.5C 4667.46,1197.55 4683.46,1207.89 4694,1226.5C 4695.8,1231.68 4696.64,1237.02 4696.5,1242.5C 4717.17,1242.5 4737.83,1242.5 4758.5,1242.5C 4758.56,1225.39 4750.56,1213.89 4734.5,1208C 4726.41,1205.22 4718.08,1203.56 4709.5,1203C 4704,1197.85 4704.34,1193.18 4710.5,1189C 4728.33,1188.36 4744.33,1193.36 4758.5,1204C 4769.93,1214.29 4774.93,1227.12 4773.5,1242.5C 4796.51,1242.83 4819.51,1242.5 4842.5,1241.5C 4836.87,1225.37 4825.87,1214.87 4809.5,1210C 4801.62,1208.01 4793.62,1206.68 4785.5,1206C 4783.95,1204.79 4782.78,1203.29 4782,1201.5C 4781.5,1131.17 4781.33,1060.83 4781.5,990.5C 4786.44,988.632 4791.44,986.965 4796.5,985.5 Z" /></g>
<g xmlns="http://www.w3.org/2000/svg"><path style="opacity:1" fill="#2B2B2B" d="M 4796.5,985.5 C 4796.83,985.5 4797.17,985.5 4797.5,985.5C 4796.84,1054.71 4797.51,1123.71 4799.5,1192.5C 4798.5,1192.5 4797.5,1192.5 4796.5,1192.5C 4796.5,1123.5 4796.5,1054.5 4796.5,985.5 Z" /></g>
<g xmlns="http://www.w3.org/2000/svg"><path style="opacity:1" fill="#151515" d="M 3864.5,989.5 C 3869.58,990.971 3874.58,992.637 3879.5,994.5C 3879.5,1077.17 3879.5,1159.83 3879.5,1242.5C 3909.5,1242.67 3939.5,1242.5 3969.5,1242C 3966.15,1227.65 3957.48,1217.98 3943.5,1213C 3938.97,1211.37 3934.3,1210.37 3929.5,1210C 3924.7,1206.93 3923.53,1202.76 3926,1197.5C 3951.59,1194.97 3970.25,1205.3 3982,1228.5C 3983.07,1233.14 3983.9,1237.8 3984.5,1242.5C 4005.17,1242.5 4025.83,1242.5 4046.5,1242.5C 4046.16,1226.67 4038.82,1215.5 4024.5,1209C 4015.81,1205.61 4006.81,1203.61 3997.5,1203C 3996.07,1202.53 3994.9,1201.7 3994,1200.5C 3991.72,1191.7 3995.05,1187.7 4004,1188.5C 4022.38,1189.53 4038.05,1196.53 4051,1209.5C 4058,1219.33 4061.5,1230.33 4061.5,1242.5C 4084.17,1242.5 4106.83,1242.5 4129.5,1242.5C 4125.34,1228.16 4116.34,1218 4102.5,1212C 4092.8,1208.52 4082.8,1206.52 4072.5,1206C 4070.51,1204.68 4069.35,1202.85 4069,1200.5C 4068.5,1146.83 4068.33,1093.17 4068.5,1039.5C 4073.53,1040.02 4078.53,1040.69 4083.5,1041.5C 4083.5,1091.83 4083.5,1142.17 4083.5,1192.5C 4084.5,1192.5 4085.5,1192.5 4086.5,1192.5C 4120.86,1196.53 4140.86,1215.53 4146.5,1249.5C 4146.35,1252.63 4145.02,1255.13 4142.5,1257C 4051.17,1257.67 3959.83,1257.67 3868.5,1257C 3866.95,1255.79 3865.78,1254.29 3865,1252.5C 3864.5,1164.83 3864.33,1077.17 3864.5,989.5 Z" /></g>
<g xmlns="http://www.w3.org/2000/svg"><path style="opacity:1" fill="#FFFFFF" d="M 4781.5,990.5 C 4781.33,1060.83 4781.5,1131.17 4782,1201.5C 4782.78,1203.29 4783.95,1204.79 4785.5,1206C 4793.62,1206.68 4801.62,1208.01 4809.5,1210C 4825.87,1214.87 4836.87,1225.37 4842.5,1241.5C 4819.51,1242.5 4796.51,1242.83 4773.5,1242.5C 4774.93,1227.12 4769.93,1214.29 4758.5,1204C 4744.33,1193.36 4728.33,1188.36 4710.5,1189C 4704.34,1193.18 4704,1197.85 4709.5,1203C 4718.08,1203.56 4726.41,1205.22 4734.5,1208C 4750.56,1213.89 4758.56,1225.39 4758.5,1242.5C 4737.83,1242.5 4717.17,1242.5 4696.5,1242.5C 4696.64,1237.02 4695.8,1231.68 4694,1226.5C 4683.46,1207.89 4667.46,1197.55 4646,1195.5C 4642.71,1195.03 4640.04,1196.03 4638,1198.5C 4636.43,1203.63 4637.93,1207.46 4642.5,1210C 4647.97,1210.73 4653.31,1212.07 4658.5,1214C 4671.97,1218.96 4679.64,1228.46 4681.5,1242.5C 4651.83,1242.5 4622.17,1242.5 4592.5,1242.5C 4592.5,1174.17 4592.5,1105.83 4592.5,1037.5C 4656.73,1026.53 4719.73,1010.86 4781.5,990.5 Z" /></g>
<g xmlns="http://www.w3.org/2000/svg"><path style="opacity:1" fill="#FFFFFF" d="M 3879.5,994.5 C 3941.41,1013.88 4004.41,1028.88 4068.5,1039.5C 4068.33,1093.17 4068.5,1146.83 4069,1200.5C 4069.35,1202.85 4070.51,1204.68 4072.5,1206C 4082.8,1206.52 4092.8,1208.52 4102.5,1212C 4116.34,1218 4125.34,1228.16 4129.5,1242.5C 4106.83,1242.5 4084.17,1242.5 4061.5,1242.5C 4061.5,1230.33 4058,1219.33 4051,1209.5C 4038.05,1196.53 4022.38,1189.53 4004,1188.5C 3995.05,1187.7 3991.72,1191.7 3994,1200.5C 3994.9,1201.7 3996.07,1202.53 3997.5,1203C 4006.81,1203.61 4015.81,1205.61 4024.5,1209C 4038.82,1215.5 4046.16,1226.67 4046.5,1242.5C 4025.83,1242.5 4005.17,1242.5 3984.5,1242.5C 3983.9,1237.8 3983.07,1233.14 3982,1228.5C 3970.25,1205.3 3951.59,1194.97 3926,1197.5C 3923.53,1202.76 3924.7,1206.93 3929.5,1210C 3934.3,1210.37 3938.97,1211.37 3943.5,1213C 3957.48,1217.98 3966.15,1227.65 3969.5,1242C 3939.5,1242.5 3909.5,1242.67 3879.5,1242.5C 3879.5,1159.83 3879.5,1077.17 3879.5,994.5 Z" /></g>
<g xmlns="http://www.w3.org/2000/svg"><path style="opacity:1" fill="#2B2B2B" d="M 4083.5,1041.5 C 4083.83,1041.5 4084.17,1041.5 4084.5,1041.5C 4083.85,1092.05 4084.51,1142.38 4086.5,1192.5C 4085.5,1192.5 4084.5,1192.5 4083.5,1192.5C 4083.5,1142.17 4083.5,1091.83 4083.5,1041.5 Z" /></g>
<g xmlns="http://www.w3.org/2000/svg"><path style="opacity:1" fill="#E2F163" d="M 3657.5,1608.5 C 3631.22,1621.05 3603.39,1627.38 3574,1627.5C 3476,1622.99 3392.33,1586.32 3323,1517.5C 3311.22,1504.55 3300.38,1490.89 3290.5,1476.5C 3289.42,1475.29 3288.09,1474.63 3286.5,1474.5C 3318.46,1342.75 3302.79,1217.25 3239.5,1098C 3267.83,1109.5 3295.17,1123.17 3321.5,1139C 3481.19,1237.71 3588.69,1376.87 3644,1556.5C 3648.57,1573.85 3653.07,1591.19 3657.5,1608.5 Z" /></g>
<g xmlns="http://www.w3.org/2000/svg"><path style="opacity:1" fill="#151515" d="M 2996.5,1817.5 C 2992.11,1819.71 2987.61,1821.71 2983,1823.5C 2982.6,1823.27 2982.43,1822.94 2982.5,1822.5C 2946.17,1703.83 2909.83,1585.17 2873.5,1466.5C 2853.49,1476.23 2832.49,1483.06 2810.5,1487C 2801.52,1488.2 2792.52,1489.2 2783.5,1490C 2779.31,1498.52 2773.31,1505.52 2765.5,1511C 2753.11,1520.2 2739.78,1527.86 2725.5,1534C 2710.04,1540.13 2694.71,1539.97 2679.5,1533.5C 2679.17,1533.83 2678.83,1534.17 2678.5,1534.5C 2718.22,1645.15 2759.88,1754.48 2803.5,1862.5C 2798.17,1862.5 2792.83,1862.5 2787.5,1862.5C 2736.79,1739.72 2689.95,1615.39 2647,1489.5C 2642.85,1476.37 2639.51,1463.04 2637,1449.5C 2634.92,1426.84 2642.42,1408 2659.5,1393C 2678.24,1377.95 2699.57,1368.95 2723.5,1366C 2698.88,1324.59 2678.71,1281.09 2663,1235.5C 2657.72,1219.55 2655.72,1203.22 2657,1186.5C 2660.93,1167.29 2672.43,1159.79 2691.5,1164C 2702.21,1170.37 2711.37,1178.54 2719,1188.5C 2734.71,1211.91 2748.38,1236.58 2760,1262.5C 2768.06,1281.93 2776.06,1301.27 2784,1320.5C 2786.79,1282.52 2791.79,1244.86 2799,1207.5C 2802.2,1192.89 2807.53,1179.22 2815,1166.5C 2828.93,1154.33 2840.6,1156.33 2850,1172.5C 2857.54,1192.73 2861.54,1213.73 2862,1235.5C 2863.42,1279.43 2862.25,1323.26 2858.5,1367C 2862.14,1377.78 2865.64,1388.62 2869,1399.5C 2881.18,1400.92 2891.18,1406.25 2899,1415.5C 2905.5,1427.71 2904.16,1439.04 2895,1449.5C 2892.1,1452.4 2889.27,1455.23 2886.5,1458C 2923.48,1577.77 2960.15,1697.6 2996.5,1817.5 Z" /></g>
<g xmlns="http://www.w3.org/2000/svg"><path style="opacity:1" fill="#FFFFFF" d="M 2830.5,1173.5 C 2835.15,1177.45 2838.32,1182.45 2840,1188.5C 2842.97,1200 2844.97,1211.66 2846,1223.5C 2848.49,1271.56 2847.66,1319.56 2843.5,1367.5C 2846.17,1377.84 2848.84,1388.18 2851.5,1398.5C 2824.5,1401 2799.34,1409 2776,1422.5C 2766.42,1402.99 2755.09,1384.66 2742,1367.5C 2718.48,1328.13 2698.48,1287.13 2682,1244.5C 2677.26,1231.87 2673.93,1218.87 2672,1205.5C 2671.17,1198.77 2671.5,1192.1 2673,1185.5C 2677.47,1176.18 2683.64,1175.01 2691.5,1182C 2704.65,1194.8 2715.48,1209.3 2724,1225.5C 2747.36,1269.91 2767.03,1315.91 2783,1363.5C 2787.13,1367.45 2791.3,1367.45 2795.5,1363.5C 2797.85,1339.22 2800.02,1314.89 2802,1290.5C 2804.55,1256.52 2810.55,1223.19 2820,1190.5C 2822.02,1183.76 2825.52,1178.09 2830.5,1173.5 Z" /></g>
<g xmlns="http://www.w3.org/2000/svg"><path style="opacity:1" fill="#FFFFFF" d="M 2721.5,1381.5 C 2725.55,1381.18 2729.55,1381.51 2733.5,1382.5C 2744.93,1397.68 2754.6,1414.01 2762.5,1431.5C 2752.68,1439.14 2747.01,1449.14 2745.5,1461.5C 2745.76,1469.85 2749.09,1476.69 2755.5,1482C 2759.56,1483.69 2763.23,1485.86 2766.5,1488.5C 2760.74,1494.76 2754.24,1500.1 2747,1504.5C 2726.26,1468.02 2705.76,1431.36 2685.5,1394.5C 2696.73,1387.76 2708.73,1383.42 2721.5,1381.5 Z" /></g>
<g xmlns="http://www.w3.org/2000/svg"><path style="opacity:1" fill="#FFFFFF" d="M 2671.5,1403.5 C 2672.38,1403.37 2673.04,1403.7 2673.5,1404.5C 2693.12,1440.91 2713.12,1477.07 2733.5,1513C 2722.35,1520.54 2710.01,1523.87 2696.5,1523C 2684.58,1520.08 2675.08,1513.58 2668,1503.5C 2660.54,1483.34 2655.04,1462.67 2651.5,1441.5C 2652.94,1425.95 2659.61,1413.28 2671.5,1403.5 Z" /></g>
<g xmlns="http://www.w3.org/2000/svg"><path style="opacity:1" fill="#FFFFFF" d="M 2844.5,1414.5 C 2856.09,1413.66 2867.42,1414.83 2878.5,1418C 2889.85,1424.62 2890.85,1432.28 2881.5,1441C 2868.11,1451.86 2853.11,1459.86 2836.5,1465C 2818.39,1471.44 2799.72,1474.44 2780.5,1474C 2773.78,1474.04 2767.95,1471.87 2763,1467.5C 2761,1463.17 2761,1458.83 2763,1454.5C 2774.96,1440.26 2789.79,1430.09 2807.5,1424C 2819.68,1419.71 2832.02,1416.54 2844.5,1414.5 Z" /></g>
<g xmlns="http://www.w3.org/2000/svg"><path style="opacity:1" fill="#FFFFFF" d="M 2982.5,1822.5 C 2942.98,1775.81 2912.98,1723.48 2892.5,1665.5C 2891.19,1666.31 2890.02,1667.31 2889,1668.5C 2865.71,1702.88 2852.87,1740.88 2850.5,1782.5C 2850.34,1800.25 2852.84,1817.59 2858,1834.5C 2860.94,1841.84 2863.78,1849.17 2866.5,1856.5C 2845.64,1859.89 2824.64,1861.89 2803.5,1862.5C 2759.88,1754.48 2718.22,1645.15 2678.5,1534.5C 2678.83,1534.17 2679.17,1533.83 2679.5,1533.5C 2694.71,1539.97 2710.04,1540.13 2725.5,1534C 2739.78,1527.86 2753.11,1520.2 2765.5,1511C 2773.31,1505.52 2779.31,1498.52 2783.5,1490C 2792.52,1489.2 2801.52,1488.2 2810.5,1487C 2832.49,1483.06 2853.49,1476.23 2873.5,1466.5C 2909.83,1585.17 2946.17,1703.83 2982.5,1822.5 Z" /></g>
<g xmlns="http://www.w3.org/2000/svg"><path style="opacity:1" fill="#151515" d="M 3286.5,1474.5 C 3288.09,1474.63 3289.42,1475.29 3290.5,1476.5C 3300.38,1490.89 3311.22,1504.55 3323,1517.5C 3392.33,1586.32 3476,1622.99 3574,1627.5C 3603.39,1627.38 3631.22,1621.05 3657.5,1608.5C 3691.29,1619.05 3708.95,1642.05 3710.5,1677.5C 3708.63,1703.41 3698.96,1725.91 3681.5,1745C 3715.54,1766.7 3744.04,1794.2 3767,1827.5C 3783.24,1854.56 3792.91,1883.89 3796,1915.5C 3798.11,1943.79 3799.44,1972.13 3800,2000.5C 3799.92,2027.84 3807.25,2052.84 3822,2075.5C 3828.07,2082.24 3834.74,2088.24 3842,2093.5C 3844.27,2097.71 3843.77,2101.55 3840.5,2105C 3797.71,2120.66 3755.04,2120.33 3712.5,2104C 3696.98,2096.74 3682.98,2087.24 3670.5,2075.5C 3663.71,2102.78 3659.38,2130.44 3657.5,2158.5C 3657.52,2167.33 3658.69,2176 3661,2184.5C 3663.51,2190.19 3666.01,2195.85 3668.5,2201.5C 3668.55,2204.57 3667.22,2206.74 3664.5,2208C 3658.64,2208.85 3652.98,2208.18 3647.5,2206C 3613.78,2194.08 3585.45,2174.58 3562.5,2147.5C 3564.42,2142.66 3567.08,2138.32 3570.5,2134.5C 3591.23,2159.02 3616.56,2176.85 3646.5,2188C 3642.85,2174.77 3641.68,2161.27 3643,2147.5C 3646.21,2118.55 3651.05,2089.89 3657.5,2061.5C 3644.99,2042.65 3636.99,2021.98 3633.5,1999.5C 3636.65,1987.9 3640.32,1976.56 3644.5,1965.5C 3645.45,1990.29 3650.95,2013.95 3661,2036.5C 3669,1993.98 3668.17,1951.64 3658.5,1909.5C 3660.14,1898.65 3662.14,1887.99 3664.5,1877.5C 3678.42,1916.55 3683.92,1956.88 3681,1998.5C 3679.48,2018 3677.15,2037.33 3674,2056.5C 3707.32,2091.61 3748.15,2106.11 3796.5,2100C 3804.01,2099.25 3811.34,2097.75 3818.5,2095.5C 3804.03,2080.23 3794.53,2062.23 3790,2041.5C 3787.31,2028.63 3785.64,2015.63 3785,2002.5C 3784.64,1971.42 3782.98,1940.42 3780,1909.5C 3774.98,1871.8 3759.98,1838.8 3735,1810.5C 3716.61,1789.92 3695.78,1772.58 3672.5,1758.5C 3672.79,1756.71 3672.45,1755.05 3671.5,1753.5C 3659.3,1761.4 3645.97,1766.23 3631.5,1768C 3544.47,1778.86 3462.47,1763.52 3385.5,1722C 3336.93,1696.78 3293.43,1664.61 3255,1625.5C 3248.19,1617.21 3242.03,1608.54 3236.5,1599.5C 3223.15,1571.68 3220.99,1543.01 3230,1513.5C 3240.28,1488.04 3259.12,1475.04 3286.5,1474.5 Z" /></g>
<g xmlns="http://www.w3.org/2000/svg"><path style="opacity:1" fill="#E2F163" d="M 2787.5,1862.5 C 2792.83,1862.5 2798.17,1862.5 2803.5,1862.5C 2824.64,1861.89 2845.64,1859.89 2866.5,1856.5C 2863.78,1849.17 2860.94,1841.84 2858,1834.5C 2852.84,1817.59 2850.34,1800.25 2850.5,1782.5C 2852.87,1740.88 2865.71,1702.88 2889,1668.5C 2890.02,1667.31 2891.19,1666.31 2892.5,1665.5C 2912.98,1723.48 2942.98,1775.81 2982.5,1822.5C 2982.43,1822.94 2982.6,1823.27 2983,1823.5C 2987.61,1821.71 2992.11,1819.71 2996.5,1817.5C 3099.69,1770.31 3179.69,1697.64 3236.5,1599.5C 3242.03,1608.54 3248.19,1617.21 3255,1625.5C 3293.43,1664.61 3336.93,1696.78 3385.5,1722C 3462.47,1763.52 3544.47,1778.86 3631.5,1768C 3645.97,1766.23 3659.3,1761.4 3671.5,1753.5C 3672.45,1755.05 3672.79,1756.71 3672.5,1758.5C 3672.63,1779.18 3672.13,1799.85 3671,1820.5C 3669.23,1839.57 3667.07,1858.57 3664.5,1877.5C 3662.14,1887.99 3660.14,1898.65 3658.5,1909.5C 3653.54,1928.02 3648.87,1946.69 3644.5,1965.5C 3640.32,1976.56 3636.65,1987.9 3633.5,1999.5C 3616.55,2046.35 3595.55,2091.35 3570.5,2134.5C 3567.08,2138.32 3564.42,2142.66 3562.5,2147.5C 3516.09,2219.58 3459.09,2282.25 3391.5,2335.5C 3387.46,2338.51 3383.46,2341.51 3379.5,2344.5C 3314.11,2392.53 3242.78,2428.86 3165.5,2453.5C 3160.19,2454.55 3155.19,2456.22 3150.5,2458.5C 3070.1,2481.2 2988.1,2490.2 2904.5,2485.5C 2899.48,2485.39 2894.48,2485.05 2889.5,2484.5C 2806.47,2477.58 2727.13,2457.24 2651.5,2423.5C 2646.72,2421.13 2641.72,2419.13 2636.5,2417.5C 2443.67,2321.18 2315.17,2170.18 2251,1964.5C 2208.37,1812.23 2213.37,1661.57 2266,1512.5C 2271.23,1498.15 2277.07,1484.15 2283.5,1470.5C 2322.94,1616.75 2408.6,1726.92 2540.5,1801C 2617.47,1841.99 2699.81,1862.49 2787.5,1862.5 Z" /></g>
<g xmlns="http://www.w3.org/2000/svg"><path style="opacity:1" fill="#FFFFFF" d="M 3281.5,1491.5 C 3272.6,1522.56 3260.6,1552.23 3245.5,1580.5C 3238.13,1560.73 3237.63,1540.73 3244,1520.5C 3250.03,1503.97 3261.53,1493.63 3278.5,1489.5C 3280.04,1489.45 3281.04,1490.12 3281.5,1491.5 Z" /></g>
<g xmlns="http://www.w3.org/2000/svg"><path style="opacity:1" fill="#E2F163" d="M 3281.5,1491.5 C 3289.93,1503.31 3299.09,1514.65 3309,1525.5C 3320.61,1536.62 3331.95,1547.96 3343,1559.5C 3350.25,1571.91 3352.91,1585.24 3351,1599.5C 3349.87,1606.11 3348.37,1612.61 3346.5,1619C 3347.41,1626.46 3351.41,1628.79 3358.5,1626C 3360.04,1624.42 3361.21,1622.59 3362,1620.5C 3363.87,1614.3 3365.2,1607.97 3366,1601.5C 3366.37,1592.4 3366.54,1583.4 3366.5,1574.5C 3398.92,1597.04 3433.92,1614.21 3471.5,1626C 3486.3,1639.1 3495.8,1655.27 3500,1674.5C 3500.1,1681.87 3499.77,1689.21 3499,1696.5C 3502.79,1700.85 3507.12,1701.52 3512,1698.5C 3518.33,1675.16 3514.17,1653.82 3499.5,1634.5C 3500.17,1634.17 3500.83,1633.83 3501.5,1633.5C 3545.39,1644.65 3589.39,1645.15 3633.5,1635C 3642.65,1631.97 3651.65,1628.81 3660.5,1625.5C 3667.54,1660.12 3671.54,1695.12 3672.5,1730.5C 3666.67,1739.14 3658.67,1744.97 3648.5,1748C 3630.87,1753.12 3612.87,1755.95 3594.5,1756.5C 3586.65,1756.83 3578.98,1756.49 3571.5,1755.5C 3593.9,1738.03 3604.4,1715.03 3603,1686.5C 3598.7,1680.34 3594.03,1680 3589,1685.5C 3589.88,1707.19 3582.38,1725.35 3566.5,1740C 3554.66,1750.04 3540.99,1754.38 3525.5,1753C 3473.53,1744.52 3424.86,1727.19 3379.5,1701C 3394.81,1698.73 3408.81,1693.06 3421.5,1684C 3430.78,1676.27 3435.28,1666.44 3435,1654.5C 3431.47,1649.73 3427.3,1649.23 3422.5,1653C 3419.55,1665.29 3412.22,1673.95 3400.5,1679C 3380.98,1687.94 3361.65,1687.61 3342.5,1678C 3311.31,1657.82 3283.48,1633.66 3259,1605.5C 3253.46,1597.75 3248.96,1589.42 3245.5,1580.5C 3260.6,1552.23 3272.6,1522.56 3281.5,1491.5 Z" /></g>
<g xmlns="http://www.w3.org/2000/svg"><path style="opacity:1" fill="#f7f6f6" d="M 3660.5,1625.5 C 3686.91,1638.32 3698.08,1659.32 3694,1688.5C 3690.76,1704.65 3683.59,1718.65 3672.5,1730.5C 3671.54,1695.12 3667.54,1660.12 3660.5,1625.5 Z" /></g>
<g xmlns="http://www.w3.org/2000/svg"><path style="opacity:1" fill="#786528" d="M 3571.5,1755.5 C 3578.98,1756.49 3586.65,1756.83 3594.5,1756.5C 3586.34,1757.66 3578.01,1757.82 3569.5,1757C 3570.04,1756.28 3570.71,1755.78 3571.5,1755.5 Z" /></g>
<g xmlns="http://www.w3.org/2000/svg"><path style="opacity:1" fill="#FFFFFF" d="M 3672.5,1758.5 C 3695.78,1772.58 3716.61,1789.92 3735,1810.5C 3759.98,1838.8 3774.98,1871.8 3780,1909.5C 3782.98,1940.42 3784.64,1971.42 3785,2002.5C 3785.64,2015.63 3787.31,2028.63 3790,2041.5C 3794.53,2062.23 3804.03,2080.23 3818.5,2095.5C 3811.34,2097.75 3804.01,2099.25 3796.5,2100C 3748.15,2106.11 3707.32,2091.61 3674,2056.5C 3677.15,2037.33 3679.48,2018 3681,1998.5C 3683.92,1956.88 3678.42,1916.55 3664.5,1877.5C 3667.07,1858.57 3669.23,1839.57 3671,1820.5C 3672.13,1799.85 3672.63,1779.18 3672.5,1758.5 Z" /></g>
<g xmlns="http://www.w3.org/2000/svg"><path style="opacity:1" fill="#FFFFFF" d="M 3250.5,1772.5 C 3228.62,1807.16 3217.95,1845.16 3218.5,1886.5C 3217.99,1927.8 3228.65,1965.8 3250.5,2000.5C 3201.63,2014.32 3159.46,2002.99 3124,1966.5C 3096.54,1933.78 3087.88,1896.45 3098,1854.5C 3113.22,1806.6 3145.39,1777.77 3194.5,1768C 3213.03,1765.42 3231.36,1766.42 3249.5,1771C 3250.06,1771.38 3250.39,1771.88 3250.5,1772.5 Z" /></g>
<g xmlns="http://www.w3.org/2000/svg"><path style="opacity:1" fill="#151515" d="M 3250.5,1772.5 C 3281.92,1782.08 3305.42,1801.41 3321,1830.5C 3341.59,1875.18 3338.25,1917.84 3311,1958.5C 3295.3,1979.05 3275.13,1993.05 3250.5,2000.5C 3228.65,1965.8 3217.99,1927.8 3218.5,1886.5C 3217.95,1845.16 3228.62,1807.16 3250.5,1772.5 Z" /></g>
<g xmlns="http://www.w3.org/2000/svg"><path style="opacity:1" fill="#FFFFFF" d="M 3658.5,1909.5 C 3668.17,1951.64 3669,1993.98 3661,2036.5C 3650.95,2013.95 3645.45,1990.29 3644.5,1965.5C 3648.87,1946.69 3653.54,1928.02 3658.5,1909.5 Z" /></g>
<g xmlns="http://www.w3.org/2000/svg"><path style="opacity:1" fill="#FFFFFF" d="M 2936.5,1934.5 C 2916.75,1963.58 2897.41,1992.91 2878.5,2022.5C 2864.61,2005.01 2857.78,1985.01 2858,1962.5C 2861.85,1940.65 2874.68,1927.15 2896.5,1922C 2911.82,1920.32 2925.15,1924.49 2936.5,1934.5 Z" /></g>
<g xmlns="http://www.w3.org/2000/svg"><path style="opacity:1" fill="#151515" d="M 2936.5,1934.5 C 2941.05,1937.6 2945.39,1940.94 2949.5,1944.5C 2928.43,1974.31 2908.09,2004.64 2888.5,2035.5C 2884.41,2031.74 2881.07,2027.41 2878.5,2022.5C 2897.41,1992.91 2916.75,1963.58 2936.5,1934.5 Z" /></g>
<g xmlns="http://www.w3.org/2000/svg"><path style="opacity:1" fill="#FFFFFF" d="M 2949.5,1944.5 C 2959.34,1952.17 2969.34,1959.67 2979.5,1967C 2990.45,1972.37 3001.78,1976.21 3013.5,1978.5C 2992.09,2012.97 2970.43,2047.31 2948.5,2081.5C 2933.45,2075.29 2919.78,2066.79 2907.5,2056C 2900.59,2049.6 2894.26,2042.76 2888.5,2035.5C 2908.09,2004.64 2928.43,1974.31 2949.5,1944.5 Z" /></g>
<g xmlns="http://www.w3.org/2000/svg"><path style="opacity:1" fill="#151515" d="M 3013.5,1978.5 C 3019.17,1979.17 3024.83,1979.83 3030.5,1980.5C 3008.19,2015.82 2985.86,2051.15 2963.5,2086.5C 2958.4,2085.12 2953.4,2083.45 2948.5,2081.5C 2970.43,2047.31 2992.09,2012.97 3013.5,1978.5 Z" /></g>
<g xmlns="http://www.w3.org/2000/svg"><path style="opacity:1" fill="#f9f9f8" d="M 3030.5,1980.5 C 3044,1980.56 3056.67,1983.73 3068.5,1990C 3079.43,1998.83 3084.43,2010.33 3083.5,2024.5C 3083.18,2037.47 3078.68,2048.81 3070,2058.5C 3050.08,2076.6 3026.58,2086.76 2999.5,2089C 2987.35,2089.96 2975.35,2089.13 2963.5,2086.5C 2985.86,2051.15 3008.19,2015.82 3030.5,1980.5 Z" /></g>
<g xmlns="http://www.w3.org/2000/svg"><path style="opacity:1" fill="#FFFFFF" d="M 3633.5,1999.5 C 3636.99,2021.98 3644.99,2042.65 3657.5,2061.5C 3651.05,2089.89 3646.21,2118.55 3643,2147.5C 3641.68,2161.27 3642.85,2174.77 3646.5,2188C 3616.56,2176.85 3591.23,2159.02 3570.5,2134.5C 3595.55,2091.35 3616.55,2046.35 3633.5,1999.5 Z" /></g>
<g xmlns="http://www.w3.org/2000/svg"><path style="opacity:1" fill="#E2F163" d="M 2263.5,2442.5 C 2217.5,2443.17 2171.5,2443.83 2125.5,2444.5C 2151.57,2488.3 2177.9,2531.97 2204.5,2575.5C 2204,2576.52 2203.33,2576.69 2202.5,2576C 2159.64,2546.3 2116.64,2516.8 2073.5,2487.5C 2051.17,2530.49 2029,2573.82 2007,2617.5C 2009.62,2567.21 2012.45,2516.87 2015.5,2466.5C 1978.57,2479.79 1941.91,2493.96 1905.5,2509C 1901.83,2510.36 1898.16,2511.36 1894.5,2512C 1928.14,2480.03 1961.47,2447.7 1994.5,2415C 1956.83,2380.67 1919.17,2346.33 1881.5,2312C 1882.5,2311.33 1883.5,2311.33 1884.5,2312C 1929.57,2331.31 1974.91,2350.14 2020.5,2368.5C 2021.25,2367.62 2021.75,2366.62 2022,2365.5C 2025.43,2305.15 2029.1,2244.82 2033,2184.5C 2050.74,2240.56 2068.57,2296.56 2086.5,2352.5C 2121.07,2312.35 2155.4,2272.02 2189.5,2231.5C 2190,2230.48 2190.67,2230.31 2191.5,2231C 2167.65,2283.21 2143.65,2335.38 2119.5,2387.5C 2120.78,2389.15 2122.45,2390.31 2124.5,2391C 2170.86,2408.18 2217.19,2425.35 2263.5,2442.5 Z" /></g>
<g xmlns="http://www.w3.org/2000/svg"><path style="opacity:1" fill="#151515" d="M 3391.5,2335.5 C 3407.93,2358.79 3423.43,2382.79 3438,2407.5C 3470.2,2460.73 3501.2,2514.73 3531,2569.5C 3565.1,2635.04 3598.1,2701.04 3630,2767.5C 3632.68,2772.76 3631.85,2777.26 3627.5,2781C 3471.09,2782 3314.75,2781.66 3158.5,2780C 3155.16,2761.01 3160.83,2745.01 3175.5,2732C 3192.46,2718.79 3211.46,2709.79 3232.5,2705C 3256.57,2699.78 3280.9,2696.45 3305.5,2695C 3255.92,2633.74 3211.42,2568.9 3172,2500.5C 3164.56,2486.63 3157.4,2472.63 3150.5,2458.5C 3155.19,2456.22 3160.19,2454.55 3165.5,2453.5C 3193.72,2509.64 3226.22,2562.97 3263,2613.5C 3283.7,2642.22 3305.37,2670.22 3328,2697.5C 3329.01,2699.02 3329.51,2700.69 3329.5,2702.5C 3413.17,2702.5 3496.83,2702.5 3580.5,2702.5C 3551.09,2640.34 3519.59,2579.34 3486,2519.5C 3452,2460.14 3416.5,2401.81 3379.5,2344.5C 3383.46,2341.51 3387.46,2338.51 3391.5,2335.5 Z" /></g>
<g xmlns="http://www.w3.org/2000/svg"><path style="opacity:1" fill="#FFFFFF" d="M 3379.5,2344.5 C 3416.5,2401.81 3452,2460.14 3486,2519.5C 3519.59,2579.34 3551.09,2640.34 3580.5,2702.5C 3496.83,2702.5 3413.17,2702.5 3329.5,2702.5C 3329.51,2700.69 3329.01,2699.02 3328,2697.5C 3305.37,2670.22 3283.7,2642.22 3263,2613.5C 3226.22,2562.97 3193.72,2509.64 3165.5,2453.5C 3242.78,2428.86 3314.11,2392.53 3379.5,2344.5 Z" /></g>
<g xmlns="http://www.w3.org/2000/svg"><path style="opacity:1" fill="#151515" d="M 2636.5,2417.5 C 2641.72,2419.13 2646.72,2421.13 2651.5,2423.5C 2625.84,2461.04 2602.34,2500.04 2581,2540.5C 2553.66,2593.17 2528.5,2646.84 2505.5,2701.5C 2604.5,2702.83 2703.5,2702.83 2802.5,2701.5C 2833.6,2644.64 2859.1,2585.64 2879,2524.5C 2882.5,2511.16 2886,2497.83 2889.5,2484.5C 2894.48,2485.05 2899.48,2485.39 2904.5,2485.5C 2893.36,2533.76 2877.52,2580.43 2857,2625.5C 2834.17,2676.17 2808.5,2725.17 2780,2772.5C 2778.07,2775.88 2775.57,2778.72 2772.5,2781C 2617.17,2781.67 2461.83,2781.67 2306.5,2781C 2305.07,2780.53 2303.9,2779.7 2303,2778.5C 2301.22,2761.49 2306.72,2747.32 2319.5,2736C 2332.34,2726.15 2346.34,2718.48 2361.5,2713C 2404.22,2701.22 2447.72,2695.06 2492,2694.5C 2531.27,2597.29 2579.43,2504.96 2636.5,2417.5 Z" /></g>
<g xmlns="http://www.w3.org/2000/svg"><path style="opacity:1" fill="#FFFFFF" d="M 2651.5,2423.5 C 2727.13,2457.24 2806.47,2477.58 2889.5,2484.5C 2886,2497.83 2882.5,2511.16 2879,2524.5C 2859.1,2585.64 2833.6,2644.64 2802.5,2701.5C 2703.5,2702.83 2604.5,2702.83 2505.5,2701.5C 2528.5,2646.84 2553.66,2593.17 2581,2540.5C 2602.34,2500.04 2625.84,2461.04 2651.5,2423.5 Z" /></g>
<g xmlns="http://www.w3.org/2000/svg"><path style="opacity:1" fill="#E2F163" d="M 2263.5,2442.5 C 2264.29,2442.78 2264.96,2443.28 2265.5,2444C 2218.83,2444.5 2172.17,2444.67 2125.5,2444.5C 2171.5,2443.83 2217.5,2443.17 2263.5,2442.5 Z" /></g>
</svg>
