<?xml version="1.0" encoding="UTF-8"?>
<svg xmlns="http://www.w3.org/2000/svg" version="1.1" xmlns:xlink="http://www.w3.org/1999/xlink" width="445px" height="492px" viewBox="3727 2264 445 492" style="shape-rendering:geometricPrecision; text-rendering:geometricPrecision; image-rendering:optimizeQuality; fill-rule:evenodd; clip-rule:evenodd">
<g xmlns="http://www.w3.org/2000/svg"><path style="opacity:1" fill="#E2F163" d="M 3909.5,2294.5 C 3927.29,2350.11 3945.13,2405.78 3963,2461.5C 3997.9,2420.69 4032.57,2379.69 4067,2338.5C 4043.92,2391.5 4020.09,2444.34 3995.5,2497C 4044.1,2515.53 4092.77,2533.87 4141.5,2552C 4094.83,2552.33 4048.17,2552.67 4001.5,2553C 4028.29,2596.75 4054.96,2640.58 4081.5,2684.5C 4081,2685.52 4080.33,2685.69 4079.5,2685C 4036.42,2655.04 3993.25,2625.21 3950,2595.5C 3927.94,2638.96 3905.94,2682.29 3884,2725.5C 3886.76,2675.19 3889.59,2624.86 3892.5,2574.5C 3851.76,2590.01 3811.09,2605.51 3770.5,2621C 3804.32,2589.02 3837.65,2556.52 3870.5,2523.5C 3833.01,2488.84 3795.34,2454.34 3757.5,2420C 3803.66,2438.61 3849.82,2457.45 3896,2476.5C 3896.5,2476.17 3897,2475.83 3897.5,2475.5C 3901.55,2415.18 3905.55,2354.84 3909.5,2294.5 Z" /></g>
</svg>
