<?xml version="1.0" encoding="UTF-8"?>
<svg xmlns="http://www.w3.org/2000/svg" version="1.1" xmlns:xlink="http://www.w3.org/1999/xlink" width="2007px" height="1623px" viewBox="3929 1233 2007 1623" style="shape-rendering:geometricPrecision; text-rendering:geometricPrecision; image-rendering:optimizeQuality; fill-rule:evenodd; clip-rule:evenodd">
<g xmlns="http://www.w3.org/2000/svg"><path style="opacity:1" fill="#151515" d="M 5696.5,1889.5 C 5696.71,1883.12 5696.37,1876.79 5695.5,1870.5C 5730.94,1844.89 5760.77,1813.89 5785,1777.5C 5836.18,1698.32 5867.85,1611.65 5880,1517.5C 5886.17,1476.24 5886.84,1434.9 5882,1393.5C 5878.38,1363.94 5867.38,1337.61 5849,1314.5C 5851.59,1367.35 5844.93,1419.02 5829,1469.5C 5823.89,1474.89 5819.22,1474.55 5815,1468.5C 5814.67,1465.13 5815,1461.8 5816,1458.5C 5832.43,1407.24 5837.43,1354.91 5831,1301.5C 5830.67,1300.17 5830.33,1298.83 5830,1297.5C 5817.92,1288.6 5804.42,1283.27 5789.5,1281.5C 5789.4,1339.65 5782.23,1396.99 5768,1453.5C 5762.75,1459.17 5758.08,1458.84 5754,1452.5C 5753.33,1450.5 5753.33,1448.5 5754,1446.5C 5767.67,1392.32 5774.17,1337.32 5773.5,1281.5C 5754.78,1282.26 5741.28,1290.93 5733,1307.5C 5726.35,1366.38 5716.35,1424.72 5703,1482.5C 5701.94,1491.69 5697.27,1494.36 5689,1490.5C 5682.63,1471.76 5674.63,1453.76 5665,1436.5C 5660.26,1429.09 5654.76,1422.26 5648.5,1416C 5641,1409.17 5635.16,1410.34 5631,1419.5C 5630.28,1427.54 5630.61,1435.54 5632,1443.5C 5640.95,1481.57 5648.61,1519.9 5655,1558.5C 5658.91,1586.63 5658.24,1614.63 5653,1642.5C 5646.74,1666.03 5635.58,1686.7 5619.5,1704.5C 5615.22,1701.86 5611.56,1698.52 5608.5,1694.5C 5636.07,1661.61 5647.23,1623.61 5642,1580.5C 5641.11,1569.11 5639.77,1557.78 5638,1546.5C 5630.67,1510.5 5623.33,1474.5 5616,1438.5C 5612.34,1423.52 5615.84,1410.69 5626.5,1400C 5636.52,1394.97 5646.19,1395.64 5655.5,1402C 5665.49,1410.32 5673.66,1420.16 5680,1431.5C 5684.17,1439.84 5688.34,1448.18 5692.5,1456.5C 5704.02,1407.73 5712.18,1358.4 5717,1308.5C 5720.56,1292.94 5729.39,1281.44 5743.5,1274C 5759.98,1265.81 5777.32,1263.48 5795.5,1267C 5828.53,1273.44 5854.03,1290.94 5872,1319.5C 5886.86,1344.4 5895.52,1371.4 5898,1400.5C 5905.15,1524.57 5879.15,1641.24 5820,1750.5C 5789.65,1806.36 5748.48,1852.69 5696.5,1889.5 Z" /></g>
<g xmlns="http://www.w3.org/2000/svg"><path style="opacity:1" fill="#FFFFFF" d="M 5695.5,1870.5 C 5691.29,1805.41 5665.95,1750.08 5619.5,1704.5C 5635.58,1686.7 5646.74,1666.03 5653,1642.5C 5658.24,1614.63 5658.91,1586.63 5655,1558.5C 5648.61,1519.9 5640.95,1481.57 5632,1443.5C 5630.61,1435.54 5630.28,1427.54 5631,1419.5C 5635.16,1410.34 5641,1409.17 5648.5,1416C 5654.76,1422.26 5660.26,1429.09 5665,1436.5C 5674.63,1453.76 5682.63,1471.76 5689,1490.5C 5697.27,1494.36 5701.94,1491.69 5703,1482.5C 5716.35,1424.72 5726.35,1366.38 5733,1307.5C 5741.28,1290.93 5754.78,1282.26 5773.5,1281.5C 5774.17,1337.32 5767.67,1392.32 5754,1446.5C 5753.33,1448.5 5753.33,1450.5 5754,1452.5C 5758.08,1458.84 5762.75,1459.17 5768,1453.5C 5782.23,1396.99 5789.4,1339.65 5789.5,1281.5C 5804.42,1283.27 5817.92,1288.6 5830,1297.5C 5830.33,1298.83 5830.67,1300.17 5831,1301.5C 5837.43,1354.91 5832.43,1407.24 5816,1458.5C 5815,1461.8 5814.67,1465.13 5815,1468.5C 5819.22,1474.55 5823.89,1474.89 5829,1469.5C 5844.93,1419.02 5851.59,1367.35 5849,1314.5C 5867.38,1337.61 5878.38,1363.94 5882,1393.5C 5886.84,1434.9 5886.17,1476.24 5880,1517.5C 5867.85,1611.65 5836.18,1698.32 5785,1777.5C 5760.77,1813.89 5730.94,1844.89 5695.5,1870.5 Z" /></g>
<g xmlns="http://www.w3.org/2000/svg"><path style="opacity:1" fill="#7774FF" d="M 5608.5,1694.5 C 5611.56,1698.52 5615.22,1701.86 5619.5,1704.5C 5665.95,1750.08 5691.29,1805.41 5695.5,1870.5C 5696.37,1876.79 5696.71,1883.12 5696.5,1889.5C 5688.23,1995.76 5635.23,2070.1 5537.5,2112.5C 5584.65,2179.38 5596.81,2252.38 5574,2331.5C 5542.88,2418.46 5482.71,2473.46 5393.5,2496.5C 5388.38,2496.96 5383.38,2497.96 5378.5,2499.5C 5281.82,2510.64 5203.49,2478.31 5143.5,2402.5C 5138.21,2417.08 5132.54,2431.41 5126.5,2445.5C 5122.17,2452.83 5117.84,2460.16 5113.5,2467.5C 5053.76,2550.39 4972.76,2586.23 4870.5,2575C 4787.5,2559.59 4726.67,2514.43 4688,2439.5C 4669.85,2401.37 4662.01,2361.04 4664.5,2318.5C 4664.96,2312.31 4664.96,2306.31 4664.5,2300.5C 4667.83,2289.42 4670.67,2278.08 4673,2266.5C 4675.21,2258.72 4677.71,2251.05 4680.5,2243.5C 4598.5,2269.88 4522.16,2258.88 4451.5,2210.5C 4447.36,2206.93 4443.02,2203.59 4438.5,2200.5C 4404.98,2171 4380.65,2135.33 4365.5,2093.5C 4364.02,2087.74 4362.36,2082.08 4360.5,2076.5C 4345.56,2015.67 4351.89,1957.34 4379.5,1901.5C 4381.83,1896.83 4384.17,1892.17 4386.5,1887.5C 4413.74,1844.22 4450.4,1811.55 4496.5,1789.5C 4443.45,1716.21 4431.62,1636.55 4461,1550.5C 4493.47,1473.5 4549.97,1423.67 4630.5,1401C 4725.04,1381.28 4805.54,1406.12 4872,1475.5C 4879.24,1484.32 4886.24,1493.32 4893,1502.5C 4907.01,1425.96 4947.18,1367.46 5013.5,1327C 5092.56,1284.71 5172.23,1283.71 5252.5,1324C 5327.17,1367.14 5369.33,1431.64 5379,1517.5C 5383.64,1568.24 5373.47,1615.58 5348.5,1659.5C 5348.83,1659.83 5349.17,1660.17 5349.5,1660.5C 5415.42,1632.14 5481.76,1631.3 5548.5,1658C 5570.02,1667.92 5590.02,1680.08 5608.5,1694.5 Z" /></g>
<g xmlns="http://www.w3.org/2000/svg"><path style="opacity:1" fill="#151515" d="M 4386.5,1887.5 C 4384.17,1892.17 4381.83,1896.83 4379.5,1901.5C 4328.96,1887.48 4293.46,1856.14 4273,1807.5C 4262.88,1784.14 4254.55,1760.14 4248,1735.5C 4241.55,1707.69 4233.55,1680.36 4224,1653.5C 4221.21,1648.71 4217.21,1645.37 4212,1643.5C 4208.41,1644.76 4205.74,1647.09 4204,1650.5C 4198.81,1663.31 4196.64,1676.65 4197.5,1690.5C 4197.54,1705.45 4198.88,1720.28 4201.5,1735C 4200.42,1741.41 4196.76,1743.74 4190.5,1742C 4149.4,1696.23 4112.06,1647.56 4078.5,1596C 4068.28,1587.71 4056.61,1584.71 4043.5,1587C 4039.35,1587.66 4035.35,1588.83 4031.5,1590.5C 4030.42,1591.36 4030.25,1592.36 4031,1593.5C 4056.32,1642.5 4087.32,1687.5 4124,1728.5C 4128.12,1737.43 4125.29,1741.93 4115.5,1742C 4083.51,1706.67 4055.34,1668.5 4031,1627.5C 4025.73,1617.96 4020.73,1608.29 4016,1598.5C 4004.19,1606.64 3994.86,1616.97 3988,1629.5C 3988.68,1635.24 3990.02,1640.91 3992,1646.5C 4013.09,1694.25 4042.09,1736.59 4079,1773.5C 4080,1782.16 4076.17,1785.66 4067.5,1784C 4030.04,1746.59 4000.37,1703.76 3978.5,1655.5C 3973.44,1675.09 3973.28,1694.75 3978,1714.5C 3987.47,1750.44 4002.14,1784.11 4022,1815.5C 4074.32,1899.82 4142.15,1968.98 4225.5,2023C 4267.14,2049.15 4312.14,2066.98 4360.5,2076.5C 4362.36,2082.08 4364.02,2087.74 4365.5,2093.5C 4314.73,2084.49 4267.4,2066.65 4223.5,2040C 4119.29,1974.73 4039.45,1887.23 3984,1777.5C 3969.29,1748.05 3961.13,1716.88 3959.5,1684C 3959.21,1646.94 3972.54,1615.94 3999.5,1591C 4020,1574.36 4043.33,1568.36 4069.5,1573C 4076.11,1575.3 4082.11,1578.64 4087.5,1583C 4102.3,1604.76 4117.46,1626.26 4133,1647.5C 4149.09,1668.02 4165.43,1688.35 4182,1708.5C 4182.33,1696.83 4182.67,1685.17 4183,1673.5C 4183.54,1660.39 4187.21,1648.39 4194,1637.5C 4202.7,1627.9 4212.87,1626.07 4224.5,1632C 4228.41,1634.03 4231.57,1636.87 4234,1640.5C 4237.54,1646.25 4240.54,1652.25 4243,1658.5C 4250.49,1685.47 4257.82,1712.47 4265,1739.5C 4271.09,1758.77 4277.75,1777.77 4285,1796.5C 4303.59,1843.93 4337.42,1874.26 4386.5,1887.5 Z" /></g>
<g xmlns="http://www.w3.org/2000/svg"><path style="opacity:1" fill="#FFFFFF" d="M 4379.5,1901.5 C 4351.89,1957.34 4345.56,2015.67 4360.5,2076.5C 4312.14,2066.98 4267.14,2049.15 4225.5,2023C 4142.15,1968.98 4074.32,1899.82 4022,1815.5C 4002.14,1784.11 3987.47,1750.44 3978,1714.5C 3973.28,1694.75 3973.44,1675.09 3978.5,1655.5C 4000.37,1703.76 4030.04,1746.59 4067.5,1784C 4076.17,1785.66 4080,1782.16 4079,1773.5C 4042.09,1736.59 4013.09,1694.25 3992,1646.5C 3990.02,1640.91 3988.68,1635.24 3988,1629.5C 3994.86,1616.97 4004.19,1606.64 4016,1598.5C 4020.73,1608.29 4025.73,1617.96 4031,1627.5C 4055.34,1668.5 4083.51,1706.67 4115.5,1742C 4125.29,1741.93 4128.12,1737.43 4124,1728.5C 4087.32,1687.5 4056.32,1642.5 4031,1593.5C 4030.25,1592.36 4030.42,1591.36 4031.5,1590.5C 4035.35,1588.83 4039.35,1587.66 4043.5,1587C 4056.61,1584.71 4068.28,1587.71 4078.5,1596C 4112.06,1647.56 4149.4,1696.23 4190.5,1742C 4196.76,1743.74 4200.42,1741.41 4201.5,1735C 4198.88,1720.28 4197.54,1705.45 4197.5,1690.5C 4196.64,1676.65 4198.81,1663.31 4204,1650.5C 4205.74,1647.09 4208.41,1644.76 4212,1643.5C 4217.21,1645.37 4221.21,1648.71 4224,1653.5C 4233.55,1680.36 4241.55,1707.69 4248,1735.5C 4254.55,1760.14 4262.88,1784.14 4273,1807.5C 4293.46,1856.14 4328.96,1887.48 4379.5,1901.5 Z" /></g>
<g xmlns="http://www.w3.org/2000/svg"><path style="opacity:1" fill="#151515" d="M 5168.5,2055.5 C 5144.37,2043.88 5123.87,2027.55 5107,2006.5C 5103,2035.82 5099.17,2065.15 5095.5,2094.5C 5090.61,2095.72 5085.61,2096.39 5080.5,2096.5C 5080.5,2095.5 5080.5,2094.5 5080.5,2093.5C 5084.75,2057.91 5089.42,2022.41 5094.5,1987C 5090.76,1981.01 5087.42,1974.85 5084.5,1968.5C 5070.7,1931.45 5068.86,1893.78 5079,1855.5C 5080.19,1840.94 5075.86,1828.27 5066,1817.5C 5044,1795.94 5018.17,1789.11 4988.5,1797C 4974.4,1803.43 4965.9,1814.27 4963,1829.5C 4949.54,1858.79 4929.7,1882.79 4903.5,1901.5C 4900.11,1902.62 4897.28,1904.62 4895,1907.5C 4874.34,1941.65 4853.5,1975.65 4832.5,2009.5C 4828.12,2006.13 4824.46,2002.13 4821.5,1997.5C 4837.49,1971.53 4853.49,1945.53 4869.5,1919.5C 4865.34,1920.03 4861,1921.2 4856.5,1923C 4833.85,1929.18 4810.85,1931.01 4787.5,1928.5C 4713.56,1914.4 4666.73,1871.06 4647,1798.5C 4634.9,1722.72 4660.4,1663.56 4723.5,1621C 4764.97,1597.15 4808.97,1591.15 4855.5,1603C 4919.91,1624.41 4959.41,1668.24 4974,1734.5C 4976.51,1751.18 4976.67,1767.85 4974.5,1784.5C 4974.83,1785.17 4975.17,1785.83 4975.5,1786.5C 4986.3,1780.42 4997.96,1777.42 5010.5,1777.5C 5046.39,1779.19 5073.23,1795.52 5091,1826.5C 5119.7,1775.49 5163.2,1746.33 5221.5,1739C 5284.74,1734.54 5335.57,1757.38 5374,1807.5C 5405.73,1855.33 5412.73,1906.67 5395,1961.5C 5365.79,2030.51 5313.63,2066.84 5238.5,2070.5C 5214.01,2070.42 5190.68,2065.42 5168.5,2055.5 Z" /></g>
<g xmlns="http://www.w3.org/2000/svg"><path style="opacity:1" fill="#7774FF" d="M 4888.5,1888.5 C 4882.62,1882.83 4875.62,1878.99 4867.5,1877C 4845.72,1872.96 4825.39,1876.62 4806.5,1888C 4797.89,1894.11 4792.22,1902.28 4789.5,1912.5C 4723.87,1900.71 4681.7,1862.71 4663,1798.5C 4650.44,1727.81 4673.94,1672.64 4733.5,1633C 4783.65,1606.05 4833.99,1605.72 4884.5,1632C 4933.27,1661.85 4958.94,1705.52 4961.5,1763C 4959.49,1816.37 4936.82,1858.37 4893.5,1889C 4891.8,1889.38 4890.14,1889.22 4888.5,1888.5 Z" /></g>
<g xmlns="http://www.w3.org/2000/svg"><path style="opacity:1" fill="#151515" d="M 4774.5,1691.5 C 4794.6,1726.41 4796.6,1762.41 4780.5,1799.5C 4743.61,1785.05 4706.94,1770.05 4670.5,1754.5C 4695.14,1717.17 4729.8,1696.17 4774.5,1691.5 Z" /></g>
<g xmlns="http://www.w3.org/2000/svg"><path style="opacity:1" fill="#FFFFFF" d="M 4780.5,1799.5 C 4796.6,1762.41 4794.6,1726.41 4774.5,1691.5C 4832.3,1689.14 4875.8,1712.81 4905,1762.5C 4919.46,1791.61 4923.79,1822.27 4918,1854.5C 4917.59,1854.96 4917.09,1855.29 4916.5,1855.5C 4870.95,1837.39 4825.62,1818.73 4780.5,1799.5 Z" /></g>
<g xmlns="http://www.w3.org/2000/svg"><path style="opacity:1" fill="#7774FF" d="M 5351.5,2003.5 C 5349.91,1950.8 5326.57,1910.97 5281.5,1884C 5257.59,1870.95 5232.26,1865.79 5205.5,1868.5C 5160.75,1872.21 5126.08,1892.88 5101.5,1930.5C 5137.64,1946.78 5174.31,1962.11 5211.5,1976.5C 5250.57,1992.52 5289.57,2008.52 5328.5,2024.5C 5305.45,2042.58 5279.12,2052.75 5249.5,2055C 5223.04,2057.01 5198.04,2052.17 5174.5,2040.5C 5175.91,2026.46 5172.74,2013.46 5165,2001.5C 5155.05,1983.88 5140.21,1972.72 5120.5,1968C 5117.52,1967.5 5114.52,1967.34 5111.5,1967.5C 5108.15,1967.67 5104.82,1967.5 5101.5,1967C 5078.62,1913.26 5083.79,1862.43 5117,1814.5C 5159.1,1762.35 5212.93,1743.85 5278.5,1759C 5333.5,1776 5369,1812.16 5385,1867.5C 5394.58,1908.68 5388.58,1947.35 5367,1983.5C 5362.35,1990.64 5357.19,1997.3 5351.5,2003.5 Z" /></g>
<g xmlns="http://www.w3.org/2000/svg"><path style="opacity:1" fill="#7774FF" d="M 5084.5,1968.5 C 5057.38,1974.24 5030.05,1975.41 5002.5,1972C 4999.07,1971.44 4995.73,1970.61 4992.5,1969.5C 4987.28,1968.43 4982.28,1966.76 4977.5,1964.5C 4959.55,1956.6 4943.72,1945.6 4930,1931.5C 4921.3,1921.31 4912.47,1911.31 4903.5,1901.5C 4929.7,1882.79 4949.54,1858.79 4963,1829.5C 4965.9,1814.27 4974.4,1803.43 4988.5,1797C 5018.17,1789.11 5044,1795.94 5066,1817.5C 5075.86,1828.27 5080.19,1840.94 5079,1855.5C 5068.86,1893.78 5070.7,1931.45 5084.5,1968.5 Z" /></g>
<g xmlns="http://www.w3.org/2000/svg"><path style="opacity:1" fill="#FFFFFF" d="M 5205.5,1868.5 C 5232.26,1865.79 5257.59,1870.95 5281.5,1884C 5326.57,1910.97 5349.91,1950.8 5351.5,2003.5C 5344.74,2011.6 5337.07,2018.6 5328.5,2024.5C 5289.57,2008.52 5250.57,1992.52 5211.5,1976.5C 5223.47,1946.96 5224.64,1916.96 5215,1886.5C 5212.07,1880.31 5208.91,1874.31 5205.5,1868.5 Z" /></g>
<g xmlns="http://www.w3.org/2000/svg"><path style="opacity:1" fill="#151515" d="M 5205.5,1868.5 C 5208.91,1874.31 5212.07,1880.31 5215,1886.5C 5224.64,1916.96 5223.47,1946.96 5211.5,1976.5C 5174.31,1962.11 5137.64,1946.78 5101.5,1930.5C 5126.08,1892.88 5160.75,1872.21 5205.5,1868.5 Z" /></g>
<g xmlns="http://www.w3.org/2000/svg"><path style="opacity:1" fill="#FFFFFF" d="M 4888.5,1888.5 C 4887.58,1890.75 4886.25,1892.75 4884.5,1894.5C 4854.76,1911.32 4823.09,1917.32 4789.5,1912.5C 4792.22,1902.28 4797.89,1894.11 4806.5,1888C 4825.39,1876.62 4845.72,1872.96 4867.5,1877C 4875.62,1878.99 4882.62,1882.83 4888.5,1888.5 Z" /></g>
<g xmlns="http://www.w3.org/2000/svg"><path style="opacity:1" fill="#FFFFFF" d="M 4903.5,1901.5 C 4912.47,1911.31 4921.3,1921.31 4930,1931.5C 4943.72,1945.6 4959.55,1956.6 4977.5,1964.5C 4965.17,2002.5 4952.83,2040.5 4940.5,2078.5C 4898.91,2064.05 4862.91,2041.05 4832.5,2009.5C 4853.5,1975.65 4874.34,1941.65 4895,1907.5C 4897.28,1904.62 4900.11,1902.62 4903.5,1901.5 Z" /></g>
<g xmlns="http://www.w3.org/2000/svg"><path style="opacity:1" fill="#FFFFFF" d="M 4821.5,1997.5 C 4803,1978.17 4791.67,1955.17 4787.5,1928.5C 4810.85,1931.01 4833.85,1929.18 4856.5,1923C 4861,1921.2 4865.34,1920.03 4869.5,1919.5C 4853.49,1945.53 4837.49,1971.53 4821.5,1997.5 Z" /></g>
<g xmlns="http://www.w3.org/2000/svg"><path style="opacity:1" fill="#040404" d="M 4977.5,1964.5 C 4982.28,1966.76 4987.28,1968.43 4992.5,1969.5C 4980.17,2007.5 4967.83,2045.5 4955.5,2083.5C 4950.31,2082.44 4945.31,2080.77 4940.5,2078.5C 4952.83,2040.5 4965.17,2002.5 4977.5,1964.5 Z" /></g>
<g xmlns="http://www.w3.org/2000/svg"><path style="opacity:1" fill="#f7f7f8" d="M 5111.5,1967.5 C 5114.52,1967.34 5117.52,1967.5 5120.5,1968C 5140.21,1972.72 5155.05,1983.88 5165,2001.5C 5172.74,2013.46 5175.91,2026.46 5174.5,2040.5C 5147.21,2027.54 5125.54,2008.21 5109.5,1982.5C 5110.58,1977.57 5111.24,1972.57 5111.5,1967.5 Z" /></g>
<g xmlns="http://www.w3.org/2000/svg"><path style="opacity:1" fill="#FFFFFF" d="M 5084.5,1968.5 C 5087.42,1974.85 5090.76,1981.01 5094.5,1987C 5089.42,2022.41 5084.75,2057.91 5080.5,2093.5C 5079.57,2094.57 5079.23,2095.9 5079.5,2097.5C 5037.15,2100.94 4995.82,2096.28 4955.5,2083.5C 4967.83,2045.5 4980.17,2007.5 4992.5,1969.5C 4995.73,1970.61 4999.07,1971.44 5002.5,1972C 5030.05,1975.41 5057.38,1974.24 5084.5,1968.5 Z" /></g>
<g xmlns="http://www.w3.org/2000/svg"><path style="opacity:1" fill="#FFFFFF" d="M 5168.5,2055.5 C 5168.29,2056.92 5167.79,2058.26 5167,2059.5C 5154,2074.47 5137.83,2084.63 5118.5,2090C 5111.08,2091.52 5103.74,2093.36 5096.5,2095.5C 5095.89,2095.38 5095.56,2095.04 5095.5,2094.5C 5099.17,2065.15 5103,2035.82 5107,2006.5C 5123.87,2027.55 5144.37,2043.88 5168.5,2055.5 Z" /></g>
<g xmlns="http://www.w3.org/2000/svg"><path style="opacity:1" fill="#151515" d="M 4438.5,2200.5 C 4443.02,2203.59 4447.36,2206.93 4451.5,2210.5C 4404.97,2246.86 4369.47,2291.86 4345,2345.5C 4330.19,2382.36 4323.36,2420.7 4324.5,2460.5C 4327.39,2545.82 4339.39,2629.82 4360.5,2712.5C 4437.5,2713.83 4514.5,2713.83 4591.5,2712.5C 4559.4,2627.36 4548.9,2539.7 4560,2449.5C 4571.74,2383.32 4606.58,2333.65 4664.5,2300.5C 4664.96,2306.31 4664.96,2312.31 4664.5,2318.5C 4614.1,2350.89 4583.94,2396.89 4574,2456.5C 4566.59,2517.8 4570.25,2578.47 4585,2638.5C 4595.11,2681.03 4609.78,2721.7 4629,2760.5C 4631.73,2765.85 4630.57,2770.02 4625.5,2773C 4501.17,2772.89 4376.83,2772.56 4252.5,2772C 4249.56,2769.98 4247.73,2767.14 4247,2763.5C 4243.45,2749.14 4247.62,2737.64 4259.5,2729C 4276.3,2718.69 4294.63,2712.35 4314.5,2710C 4323.8,2708.5 4333.14,2707.34 4342.5,2706.5C 4328.12,2643.86 4317.95,2580.53 4312,2516.5C 4307.9,2474.7 4308.9,2433.03 4315,2391.5C 4324.61,2347.95 4342.61,2308.29 4369,2272.5C 4389.65,2246.02 4412.82,2222.02 4438.5,2200.5 Z" /></g>
<g xmlns="http://www.w3.org/2000/svg"><path style="opacity:1" fill="#FFFFFF" d="M 4451.5,2210.5 C 4522.16,2258.88 4598.5,2269.88 4680.5,2243.5C 4677.71,2251.05 4675.21,2258.72 4673,2266.5C 4670.67,2278.08 4667.83,2289.42 4664.5,2300.5C 4606.58,2333.65 4571.74,2383.32 4560,2449.5C 4548.9,2539.7 4559.4,2627.36 4591.5,2712.5C 4514.5,2713.83 4437.5,2713.83 4360.5,2712.5C 4339.39,2629.82 4327.39,2545.82 4324.5,2460.5C 4323.36,2420.7 4330.19,2382.36 4345,2345.5C 4369.47,2291.86 4404.97,2246.86 4451.5,2210.5 Z" /></g>
<g xmlns="http://www.w3.org/2000/svg"><path style="opacity:1" fill="#FFFFFF" d="M 5378.5,2499.5 C 5383.31,2516.76 5388.81,2533.76 5395,2550.5C 5425.49,2625.99 5463.66,2697.16 5509.5,2764C 5433.5,2764.5 5357.5,2764.67 5281.5,2764.5C 5281.39,2762.22 5280.56,2760.22 5279,2758.5C 5240.42,2714.01 5205.76,2666.67 5175,2616.5C 5146.05,2563.23 5129.89,2506.23 5126.5,2445.5C 5132.54,2431.41 5138.21,2417.08 5143.5,2402.5C 5203.49,2478.31 5281.82,2510.64 5378.5,2499.5 Z" /></g>
<g xmlns="http://www.w3.org/2000/svg"><path style="opacity:1" fill="#151515" d="M 5126.5,2445.5 C 5129.89,2506.23 5146.05,2563.23 5175,2616.5C 5205.76,2666.67 5240.42,2714.01 5279,2758.5C 5280.56,2760.22 5281.39,2762.22 5281.5,2764.5C 5357.5,2764.67 5433.5,2764.5 5509.5,2764C 5463.66,2697.16 5425.49,2625.99 5395,2550.5C 5388.81,2533.76 5383.31,2516.76 5378.5,2499.5C 5383.38,2497.96 5388.38,2496.96 5393.5,2496.5C 5409.64,2548.8 5430.81,2599.13 5457,2647.5C 5487.78,2706.58 5524.45,2761.58 5567,2812.5C 5568.73,2817.78 5567.23,2821.61 5562.5,2824C 5440.83,2825.01 5319.16,2825.68 5197.5,2826C 5194.16,2825.32 5191.66,2823.49 5190,2820.5C 5180.32,2803.41 5183.48,2789.24 5199.5,2778C 5217.89,2767.91 5237.55,2761.58 5258.5,2759C 5216.15,2710.3 5179.65,2657.46 5149,2600.5C 5129.52,2558.24 5117.68,2513.9 5113.5,2467.5C 5117.84,2460.16 5122.17,2452.83 5126.5,2445.5 Z" /></g>
</svg>
