<?xml version="1.0" encoding="UTF-8"?>
<svg xmlns="http://www.w3.org/2000/svg" version="1.1" xmlns:xlink="http://www.w3.org/1999/xlink" width="512px" height="567px" viewBox="5343 486 512 567" style="shape-rendering:geometricPrecision; text-rendering:geometricPrecision; image-rendering:optimizeQuality; fill-rule:evenodd; clip-rule:evenodd">
<g xmlns="http://www.w3.org/2000/svg"><path style="opacity:1" fill="#E2F163" d="M 5822.5,818.5 C 5767.93,819.163 5713.93,819.829 5660.5,820.5C 5691.11,872.221 5722.11,923.721 5753.5,975C 5750.7,974.268 5748.03,972.934 5745.5,971C 5696.93,936.797 5648.09,902.963 5599,869.5C 5573.11,920.282 5547.44,971.282 5522,1022.5C 5525.38,963.532 5528.55,904.532 5531.5,845.5C 5489.05,861.383 5446.71,877.883 5404.5,895C 5399.85,896.776 5395.19,898.11 5390.5,899C 5429.35,861.654 5468.01,824.154 5506.5,786.5C 5462.4,745.61 5418.06,704.943 5373.5,664.5C 5428.07,686.643 5482.73,708.977 5537.5,731.5C 5538.25,730.624 5538.75,729.624 5539,728.5C 5543.06,657.763 5547.4,587.096 5552,516.5C 5572.51,582.209 5593.18,647.875 5614,713.5C 5654.29,665.539 5694.96,617.873 5736,570.5C 5709.57,631.047 5682.23,691.38 5654,751.5C 5653.33,752.833 5653.33,754.167 5654,755.5C 5710.19,776.424 5766.36,797.424 5822.5,818.5 Z" /></g>
<g xmlns="http://www.w3.org/2000/svg"><path style="opacity:1" fill="#E2F163" d="M 5822.5,818.5 C 5823.38,818.369 5824.04,818.702 5824.5,819.5C 5769.84,820.5 5715.17,820.833 5660.5,820.5C 5713.93,819.829 5767.93,819.163 5822.5,818.5 Z" /></g>
</svg>
